<svg width="23" height="21" viewBox="0 0 23 21" fill="none" xmlns="http://www.w3.org/2000/svg">
<path d="M21.8754 7.54166H1.22812C1.00554 7.54166 0.91676 7.2303 1.09474 7.14111L11.1068 1.13369C11.247 1.04632 11.4089 1 11.5741 1C11.7393 1 11.9011 1.04632 12.0413 1.13369L22.0534 7.14111C22.1872 7.2303 22.098 7.54166 21.8754 7.54166Z" fill="#5F9FE6" stroke="black" stroke-width="0.5" stroke-linecap="round" stroke-linejoin="round"/>
<path d="M20.4498 7.54175H2.65213V8.43163C2.64855 8.49102 2.65761 8.5505 2.67871 8.60613C2.69982 8.66176 2.73249 8.71228 2.77456 8.75435C2.81663 8.79642 2.86715 8.82909 2.92278 8.85019C2.97841 8.8713 3.03788 8.88036 3.09728 8.87678H20.0067C20.0659 8.88006 20.1251 8.87077 20.1805 8.84953C20.2359 8.82829 20.2862 8.79558 20.328 8.75354C20.3699 8.71151 20.4023 8.66109 20.4233 8.60561C20.4443 8.55013 20.4533 8.49084 20.4498 8.43163V7.54175Z" fill="white" stroke="black" stroke-width="0.5" stroke-linecap="round" stroke-linejoin="round"/>
<path d="M20.0067 17.3311H3.09728C3.03788 17.3275 2.97841 17.3366 2.92278 17.3577C2.86715 17.3788 2.81663 17.4114 2.77456 17.4535C2.73249 17.4956 2.69982 17.5461 2.67871 17.6017C2.65761 17.6574 2.64855 17.7168 2.65213 17.7762V18.6661H20.4498V17.7762C20.4533 17.717 20.4443 17.6577 20.4233 17.6023C20.4023 17.5468 20.3699 17.4964 20.328 17.4543C20.2862 17.4123 20.2359 17.3796 20.1805 17.3583C20.1251 17.3371 20.0659 17.3278 20.0067 17.3311Z" fill="white" stroke="black" stroke-width="0.5" stroke-linecap="round" stroke-linejoin="round"/>
<path d="M21.3418 18.666H1.76231C1.70292 18.6625 1.64345 18.6715 1.58782 18.6926C1.53219 18.7137 1.48167 18.7464 1.4396 18.7885C1.39752 18.8305 1.36486 18.8811 1.34375 18.9367C1.32265 18.9923 1.31359 19.0518 1.31717 19.1112V20.4458H21.7865V19.1112C21.7901 19.0518 21.781 18.9924 21.7599 18.9368C21.7389 18.8812 21.7062 18.8307 21.6642 18.7886C21.6222 18.7466 21.5717 18.7139 21.5161 18.6928C21.4606 18.6716 21.4011 18.6625 21.3418 18.666Z" fill="#5F9FE6" stroke="black" stroke-width="0.5"/>
<path d="M13.3308 9.76659V8.87671H9.7713V9.76659C9.76771 9.82598 9.77678 9.88546 9.79788 9.94109C9.81898 9.99672 9.85165 10.0472 9.89372 10.0893C9.93579 10.1314 9.98631 10.164 10.0419 10.1852C10.0976 10.2063 10.157 10.2153 10.2164 10.2117V15.9958C10.157 15.9922 10.0975 16.0013 10.0418 16.0224C9.98618 16.0435 9.93564 16.0762 9.89356 16.1183C9.85148 16.1604 9.81882 16.211 9.79775 16.2667C9.77667 16.3224 9.76765 16.3819 9.7713 16.4413V17.3312H13.3308V16.4413C13.3345 16.3819 13.3255 16.3225 13.3044 16.2668C13.2833 16.2112 13.2507 16.1606 13.2087 16.1185C13.1667 16.0764 13.1162 16.0437 13.0606 16.0225C13.0049 16.0014 12.9455 15.9922 12.8861 15.9958V10.2117C12.9454 10.2153 13.0049 10.2062 13.0605 10.185C13.116 10.1639 13.1665 10.1312 13.2085 10.0891C13.2506 10.0471 13.2832 9.99658 13.3043 9.94098C13.3253 9.88538 13.3344 9.82595 13.3308 9.76659Z" fill="#5F9FE6" stroke="black" stroke-width="0.5" stroke-linecap="round" stroke-linejoin="round"/>
<path d="M7.54664 9.76659V8.87671H3.98712V9.76659C3.98353 9.82598 3.9926 9.88546 4.0137 9.94109C4.0348 9.99672 4.06747 10.0472 4.10954 10.0893C4.15162 10.1314 4.20213 10.164 4.25777 10.1852C4.3134 10.2063 4.37287 10.2153 4.43226 10.2117V15.9958C4.37283 15.9922 4.31332 16.0013 4.25766 16.0224C4.202 16.0435 4.15146 16.0762 4.10938 16.1183C4.0673 16.1604 4.03465 16.211 4.01357 16.2667C3.99249 16.3224 3.98347 16.3819 3.98712 16.4413V17.3312H7.54664V16.4413C7.55028 16.3819 7.54127 16.3225 7.52022 16.2668C7.49917 16.2112 7.46655 16.1606 7.42451 16.1185C7.38248 16.0764 7.33199 16.0437 7.27638 16.0225C7.22077 16.0014 7.1613 15.9922 7.10191 15.9958V10.2117C7.16127 10.2153 7.2207 10.2062 7.27628 10.185C7.33186 10.1639 7.38233 10.1312 7.42435 10.0891C7.46638 10.0471 7.49901 9.99658 7.52009 9.94098C7.54117 9.88538 7.55022 9.82595 7.54664 9.76659Z" fill="#5F9FE6" stroke="black" stroke-width="0.5" stroke-linecap="round" stroke-linejoin="round"/>
<path d="M19.116 9.76659V8.87671H15.5565V9.76659C15.5529 9.82598 15.5619 9.88546 15.583 9.94109C15.6041 9.99672 15.6368 10.0472 15.6789 10.0893C15.721 10.1314 15.7715 10.164 15.8271 10.1852C15.8827 10.2063 15.9422 10.2153 16.0016 10.2117V15.9958C15.9422 15.9922 15.8827 16.0013 15.827 16.0224C15.7713 16.0435 15.7208 16.0762 15.6787 16.1183C15.6366 16.1604 15.604 16.211 15.5829 16.2667C15.5618 16.3224 15.5528 16.3819 15.5565 16.4413V17.3312H19.116V16.4413C19.1196 16.3819 19.1106 16.3225 19.0896 16.2668C19.0685 16.2112 19.0359 16.1606 18.9938 16.1185C18.9518 16.0764 18.9013 16.0437 18.8457 16.0225C18.7901 16.0014 18.7306 15.9922 18.6712 15.9958V10.2117C18.7306 10.2153 18.79 10.2062 18.8456 10.185C18.9012 10.1639 18.9517 10.1312 18.9937 10.0891C19.0357 10.0471 19.0683 9.99658 19.0894 9.94098C19.1105 9.88538 19.1196 9.82595 19.116 9.76659Z" fill="#5F9FE6" stroke="black" stroke-width="0.5" stroke-linecap="round" stroke-linejoin="round"/>
</svg>
