<svg width="37" height="38" viewBox="0 0 37 38" fill="none" xmlns="http://www.w3.org/2000/svg">
<path d="M10.2942 0L0 5.94344V20.319C0 21.5737 0.669544 22.7331 1.75646 23.3601L14.1598 30.5158V27.5114L24.3665 21.5601V8.2257L10.2942 0Z" fill="#EDEDED"/>
<path d="M10.2942 0L0 5.94344V20.319C0 21.5737 0.669544 22.7331 1.75646 23.3601L14.1598 30.5158V27.5114L24.3665 21.5601V8.2257L10.2942 0Z" fill="#EDEDED"/>
<path d="M14.1592 14.1185L24.3658 8.22559V21.5603L14.1592 27.5116V14.1185Z" fill="#CECECE"/>
<path d="M33.8781 18.9139C33.6276 17.3308 32.6771 15.9449 31.2903 15.1409L24.5073 11.2092C24.1973 11.0293 23.8454 11.0641 23.5839 11.2377L14.6556 16.3699C14.3701 16.5074 14.1592 16.7963 14.1592 17.1586V30.5159L24.5293 36.5098C24.7985 36.6652 25.1012 36.6445 25.3358 36.5076L34.3531 31.3255C34.3624 31.3204 34.3714 31.3153 34.3802 31.3099C34.6072 31.1733 34.769 30.9262 34.769 30.6229V30.2535C34.769 26.4562 34.4711 22.6646 33.8781 18.9139Z" fill="#F3AD39"/>
<path d="M11.082 26.5931L7.86025 24.3267C7.38612 23.1421 6.59656 22.0893 5.70223 21.5728C4.25245 20.7358 3.07715 21.6242 3.07715 23.5575C3.07715 25.4904 4.25245 27.7362 5.70223 28.5732C6.38929 28.97 7.0145 28.9785 7.48241 28.6726L11.082 26.5931Z" fill="#23292E"/>
<path d="M36.2924 30.1036C36.2924 29.8037 36.1371 29.5252 35.8818 29.3677L34.3222 28.4053L34.3261 30.0352L26.43 34.6531C26.0171 34.8949 25.5009 34.8717 25.1112 34.5944L24.4541 34.9753V36.4596L25.1222 36.8484C25.4992 37.0678 25.9649 37.069 26.3427 36.8507L35.4252 31.6115C35.962 31.2989 36.2924 30.7248 36.2924 30.1036Z" fill="#2E373D"/>
<path d="M22.3118 33.1001L19.0897 30.8334C18.6159 29.6487 17.8263 28.596 16.9317 28.0798C15.4819 27.2425 14.3066 28.1312 14.3066 30.0641C14.3066 31.9974 15.4819 34.2429 16.9317 35.0802C17.6191 35.477 18.2443 35.4854 18.7122 35.1793L22.3118 33.1001Z" fill="#23292E"/>
<path d="M24.4534 36.4594V34.9752L25.1105 34.5939C25.2969 34.7267 25.5123 34.8006 25.7318 34.8156C25.7007 31.2293 25.4042 27.6494 24.8439 24.1063C24.5934 22.5232 23.6429 21.1373 22.2561 20.3333L15.4731 16.4016C14.8897 16.0633 14.1592 16.4843 14.1592 17.1587V27.5116C15.8018 28.4678 17.0494 29.9794 17.6766 31.7737L17.7023 31.848C17.907 32.4334 18.3148 32.9256 18.8519 33.2354L24.4534 36.4594Z" fill="#C98000"/>
<path d="M34.6505 26.1162L33.8898 27.5485C33.6308 28.0362 33.2394 28.4403 32.7605 28.7145L29.153 30.7801C28.6114 31.0902 27.9952 31.2464 27.3711 31.2317L25.6104 31.1899V31.1902V31.1899L25.3142 31.0188C25.0643 30.8747 24.752 31.0549 24.752 31.3435V33.2852C24.752 33.8232 24.9601 34.3323 25.3207 34.7135C25.4334 34.7638 25.552 34.7949 25.6725 34.8093C25.6725 34.8098 25.6728 34.8104 25.6728 34.811C25.8877 34.8367 26.1083 34.8039 26.311 34.7135L34.7649 29.7785C34.757 28.5566 34.7203 27.3356 34.6505 26.1162Z" fill="#CECECE"/>
<path d="M25.18 23.3512L25.8196 28.2385C25.9046 28.8885 26.6227 29.2438 27.1909 28.9168L33.326 25.3866C33.7971 25.1155 34.0571 24.5866 33.9846 24.0481L33.2422 18.5449C33.2089 18.2958 32.933 18.1611 32.7158 18.2874L25.6485 22.3984C25.3144 22.5924 25.13 22.968 25.18 23.3512Z" fill="#2E373D"/>
<path d="M27.0303 27.6421L33.1655 24.1119C33.5936 23.8654 33.8446 23.4057 33.8328 22.9197L33.2426 18.5449C33.209 18.2958 32.9334 18.1611 32.7162 18.2874L25.6489 22.3981C25.338 22.5788 25.1592 22.9171 25.1759 23.2718L25.659 26.9638C25.744 27.6138 26.4622 27.9691 27.0303 27.6421Z" fill="#304E75"/>
<path d="M24.3635 27.9061L24.0597 24.7021C23.9436 23.4785 23.241 22.3871 22.175 21.7751L16.1037 18.2893C15.7967 18.1131 15.4141 18.3348 15.4141 18.6886V21.2098C15.4141 21.9347 15.7583 22.6169 16.3417 23.0473L23.5497 28.3664C23.9061 28.6293 24.4053 28.3469 24.3635 27.9061Z" fill="#243B58"/>
<path d="M32.6614 18.3184L28.8379 20.5425L32.5016 23.246C32.858 23.5089 33.3572 23.2263 33.3154 22.7857L33.0116 19.5815C32.9692 19.137 32.8478 18.7112 32.6614 18.3184Z" fill="#59718B"/>
<path d="M34.7645 29.7779C34.7564 28.5563 34.7196 27.3353 34.6499 26.1162L33.8891 27.5485C33.8883 27.5505 33.8872 27.5522 33.886 27.5541C33.6457 28.0037 33.4681 28.4838 33.4057 28.9895L33.1953 30.694L34.7645 29.7779Z" fill="white"/>
<path d="M28.4854 31.4265L33.1953 28.7227L33.0072 30.1637C32.9686 30.4585 32.7946 30.7183 32.5365 30.866L29.6985 32.49C29.4071 32.6566 29.0354 32.5431 28.8869 32.2418L28.4854 31.4265Z" fill="#2E373D"/>
<path d="M35.8818 29.3669L34.7489 28.668C34.7568 29.0376 34.7627 29.4075 34.7652 29.7775L26.43 34.6524C26.0171 34.8941 25.5009 34.8709 25.1112 34.5936L24.4541 34.9746L25.1231 35.3631C25.4995 35.5817 25.9643 35.5825 26.3413 35.3648L35.4249 30.1248C35.4249 30.1248 36.1876 29.7549 35.8818 29.3669Z" fill="#23292E"/>
<path d="M14.3075 30.0643C14.3075 29.1418 14.5755 28.4578 15.0129 28.0854C14.7424 27.8767 14.4577 27.6847 14.1598 27.5113V26.0906L0 17.9541V20.3185C0 21.5732 0.669544 22.7327 1.75646 23.3596L14.3284 30.6127L14.3372 30.6068C14.3177 30.4241 14.3075 30.2428 14.3075 30.0643Z" fill="#23292E"/>
<path d="M14.1598 26.091V14.1185L0 5.94336V17.9542L14.1598 26.091Z" fill="#82A5B9"/>
<path d="M19.5571 33.0956C19.5571 35.0288 18.3818 35.9172 16.9317 35.0802C15.4819 34.2429 14.3066 31.9974 14.3066 30.0641C14.3066 28.1312 15.4819 27.2425 16.9317 28.0798C18.3818 28.9168 19.5571 31.1623 19.5571 33.0956Z" fill="#2E373D"/>
<path d="M18.2239 32.325C18.2239 33.2755 17.6461 33.7124 16.9331 33.301C16.2203 32.8895 15.6426 31.7854 15.6426 30.8349C15.6426 29.8843 16.2203 29.4475 16.9331 29.8589C17.6461 30.2706 18.2239 31.3748 18.2239 32.325Z" fill="#CECECE"/>
<path d="M17.6315 31.9841C17.6315 32.4995 17.3184 32.7364 16.9315 32.5133C16.5449 32.2902 16.2314 31.6913 16.2314 31.1759C16.2314 30.6603 16.5449 30.4233 16.9315 30.6464C17.3184 30.8698 17.6315 31.4685 17.6315 31.9841Z" fill="#627681"/>
<path d="M8.32732 26.5886C8.32732 28.5218 7.15202 29.4102 5.70223 28.5732C4.25245 27.7362 3.07715 25.4904 3.07715 23.5575C3.07715 21.6242 4.25245 20.7358 5.70223 21.5728C7.15202 22.4098 8.32732 24.6557 8.32732 26.5886Z" fill="#2E373D"/>
<path d="M6.99273 25.8193C6.99273 26.7698 6.41468 27.2067 5.70193 26.7949C4.98918 26.3835 4.41113 25.2794 4.41113 24.3288C4.41113 23.3786 4.98918 22.9415 5.70193 23.3532C6.41468 23.7646 6.99273 24.8688 6.99273 25.8193Z" fill="#CECECE"/>
<path d="M6.40399 25.478C6.40399 25.9937 6.09054 26.2306 5.70395 26.0075C5.31736 25.7841 5.00391 25.1855 5.00391 24.6698C5.00391 24.1542 5.31736 23.9175 5.70395 24.1406C6.09054 24.3637 6.40399 24.9627 6.40399 25.478Z" fill="#627681"/>
<path d="M28.4647 31.9293C28.2761 31.4992 27.848 31.2414 27.3787 31.2315C27.3761 31.2312 27.3736 31.2312 27.371 31.2312L25.6106 31.1895L25.6104 31.1897C25.6812 32.3967 25.7185 33.6056 25.729 34.8153C25.71 34.8139 25.6911 34.8111 25.6725 34.8088C25.6725 34.8094 25.6728 34.81 25.6728 34.8105C25.8877 34.8359 26.1082 34.8035 26.311 34.7131L28.9973 33.145L28.4647 31.9293Z" fill="white"/>
</svg>
