<svg width="18" height="21" viewBox="0 0 18 21" fill="none" xmlns="http://www.w3.org/2000/svg">
<path fill-rule="evenodd" clip-rule="evenodd" d="M12.6697 9.18776C12.7295 9.24748 12.777 9.31842 12.8095 9.39652C12.8419 9.47462 12.8585 9.55835 12.8585 9.64291C12.8585 9.72747 12.8419 9.81119 12.8095 9.88929C12.777 9.96739 12.7295 10.0383 12.6697 10.0981L8.81254 13.9552C8.75282 14.0151 8.68188 14.0626 8.60378 14.095C8.52568 14.1274 8.44196 14.1441 8.3574 14.1441C8.27284 14.1441 8.18911 14.1274 8.11101 14.095C8.03291 14.0626 7.96197 14.0151 7.90225 13.9552L5.97368 12.0266C5.91391 11.9669 5.8665 11.8959 5.83415 11.8178C5.80181 11.7397 5.78516 11.656 5.78516 11.5715C5.78516 11.487 5.80181 11.4033 5.83415 11.3252C5.8665 11.2471 5.91391 11.1761 5.97368 11.1163C6.09439 10.9956 6.25811 10.9278 6.42883 10.9278C6.51335 10.9278 6.59705 10.9445 6.67515 10.9768C6.75324 11.0092 6.8242 11.0566 6.88397 11.1163L8.3574 12.5911L11.7594 9.18776C11.8191 9.1279 11.8901 9.0804 11.9682 9.04799C12.0463 9.01558 12.13 8.9989 12.2145 8.9989C12.2991 8.9989 12.3828 9.01558 12.4609 9.04799C12.539 9.0804 12.61 9.1279 12.6697 9.18776Z" fill="#272265"/>
<path d="M3.85714 1.92857H2.57143C1.88944 1.92857 1.23539 2.19949 0.753154 2.68173C0.270918 3.16396 0 3.81802 0 4.5V18C0 18.682 0.270918 19.336 0.753154 19.8183C1.23539 20.3005 1.88944 20.5714 2.57143 20.5714H15.4286C16.1106 20.5714 16.7646 20.3005 17.2468 19.8183C17.7291 19.336 18 18.682 18 18V4.5C18 3.81802 17.7291 3.16396 17.2468 2.68173C16.7646 2.19949 16.1106 1.92857 15.4286 1.92857H14.1429V3.21429H15.4286C15.7696 3.21429 16.0966 3.34975 16.3377 3.59086C16.5788 3.83198 16.7143 4.15901 16.7143 4.5V18C16.7143 18.341 16.5788 18.668 16.3377 18.9091C16.0966 19.1503 15.7696 19.2857 15.4286 19.2857H2.57143C2.23044 19.2857 1.90341 19.1503 1.66229 18.9091C1.42117 18.668 1.28571 18.341 1.28571 18V4.5C1.28571 4.15901 1.42117 3.83198 1.66229 3.59086C1.90341 3.34975 2.23044 3.21429 2.57143 3.21429H3.85714V1.92857Z" fill="#272265"/>
<path d="M10.9283 1.28571C11.0988 1.28571 11.2623 1.35344 11.3829 1.474C11.5034 1.59456 11.5711 1.75808 11.5711 1.92857V3.21429C11.5711 3.38478 11.5034 3.5483 11.3829 3.66885C11.2623 3.78941 11.0988 3.85714 10.9283 3.85714H7.07115C6.90065 3.85714 6.73714 3.78941 6.61658 3.66885C6.49602 3.5483 6.42829 3.38478 6.42829 3.21429V1.92857C6.42829 1.75808 6.49602 1.59456 6.61658 1.474C6.73714 1.35344 6.90065 1.28571 7.07115 1.28571H10.9283ZM7.07115 0C6.55966 0 6.06912 0.203188 5.70744 0.564865C5.34577 0.926543 5.14258 1.41708 5.14258 1.92857V3.21429C5.14258 3.72577 5.34577 4.21631 5.70744 4.57799C6.06912 4.93967 6.55966 5.14286 7.07115 5.14286H10.9283C11.4398 5.14286 11.9303 4.93967 12.292 4.57799C12.6537 4.21631 12.8569 3.72577 12.8569 3.21429V1.92857C12.8569 1.41708 12.6537 0.926543 12.292 0.564865C11.9303 0.203188 11.4398 0 10.9283 0L7.07115 0Z" fill="#272265"/>
</svg>
