<svg width="11" height="14" viewBox="0 0 11 14" fill="none" xmlns="http://www.w3.org/2000/svg">
<path d="M5.999 3.5V0H3.499C3.10118 0 2.71964 0.158035 2.43834 0.43934C2.15704 0.720644 1.999 1.10218 1.999 1.5V10.5C1.999 10.8978 2.15704 11.2794 2.43834 11.5607C2.71964 11.842 3.10118 12 3.499 12H9.5C9.89782 12 10.2794 11.842 10.5607 11.5607C10.842 11.2794 11 10.8978 11 10.5V5H7.498C7.10018 5 6.71864 4.84196 6.43734 4.56066C6.15604 4.27936 5.998 3.89782 5.998 3.5H5.999ZM6.999 3.5V0.25L10.749 4H7.499C7.36639 4 7.23921 3.94732 7.14545 3.85355C7.05168 3.75979 6.999 3.63261 6.999 3.5ZM0 3C0 2.73478 0.105357 2.48043 0.292893 2.29289C0.48043 2.10536 0.734784 2 1 2V10.5C1 11.163 1.26339 11.7989 1.73223 12.2678C2.20107 12.7366 2.83696 13 3.5 13H9C9 13.2652 8.89464 13.5196 8.70711 13.7071C8.51957 13.8946 8.26522 14 8 14H3.556C2.61289 14 1.70841 13.6254 1.04153 12.9585C0.374649 12.2916 0 11.3871 0 10.444V3Z" fill="#272265"/>
</svg>
