<svg width="18" height="18" viewBox="0 0 18 18" fill="none" xmlns="http://www.w3.org/2000/svg">
<path d="M13 18C14.6569 18 16 16.6569 16 15V2H2V15C2 16.6569 3.34315 18 5 18H13Z" fill="#12131A" fill-opacity="0.25"/>
<path fill-rule="evenodd" clip-rule="evenodd" d="M9.70711 14.7071C9.31658 15.0976 8.68342 15.0976 8.29289 14.7071L6.29289 12.7071C5.90237 12.3166 5.90237 11.6834 6.29289 11.2929C6.68342 10.9024 7.31658 10.9024 7.70711 11.2929L8 11.5858V6C8 5.44772 8.44772 5 9 5C9.55228 5 10 5.44772 10 6V11.5858L10.2929 11.2929C10.6834 10.9024 11.3166 10.9024 11.7071 11.2929C12.0976 11.6834 12.0976 12.3166 11.7071 12.7071L9.70711 14.7071Z" fill="#12131A"/>
<path d="M0 1C0 0.447715 0.447715 0 1 0H17C17.5523 0 18 0.447715 18 1V1C18 1.55228 17.5523 2 17 2H1C0.447716 2 0 1.55228 0 1V1Z" fill="#12131A"/>
</svg>
