<svg width="20" height="16" viewBox="0 0 20 16" fill="none" xmlns="http://www.w3.org/2000/svg">
<path fill-rule="evenodd" clip-rule="evenodd" d="M7.11366 3.08906e-05C7.74865 -0.000271186 8.22845 -0.000499591 8.69114 0.110583C9.09929 0.20857 9.48947 0.370188 9.84735 0.589502C10.2531 0.838129 10.5922 1.17756 11.041 1.62678C11.0647 1.65049 11.0887 1.67451 11.113 1.69884L11.4142 2.00006L14.2413 2.00006C15.0463 2.00005 15.7106 2.00004 16.2518 2.04426C16.8139 2.09018 17.3306 2.18875 17.816 2.43604C18.5686 2.81953 19.1805 3.43145 19.564 4.1841C19.8113 4.66944 19.9099 5.18614 19.9558 5.74824C20 6.28943 20 6.95378 20 7.75874V10.2414C20 11.0463 20 11.7107 19.9558 12.2519C19.9099 12.814 19.8113 13.3307 19.564 13.816C19.1805 14.5687 18.5686 15.1806 17.816 15.5641C17.3306 15.8114 16.8139 15.9099 16.2518 15.9559C15.7106 16.0001 15.0463 16.0001 14.2413 16.0001H5.75873C4.95374 16.0001 4.28938 16.0001 3.74817 15.9559C3.18608 15.9099 2.66937 15.8114 2.18404 15.5641C1.43139 15.1806 0.819468 14.5687 0.435975 13.816C0.188684 13.3307 0.0901197 12.814 0.0441945 12.2519C-2.28137e-05 11.7107 -1.23241e-05 11.0463 4.31292e-07 10.2414V5.75876C-1.23241e-05 4.95379 -2.28137e-05 4.28943 0.0441945 3.74824C0.0901197 3.18614 0.188684 2.66944 0.435975 2.1841C0.819468 1.43145 1.43139 0.81953 2.18404 0.436037C2.66937 0.188746 3.18608 0.0901819 3.74817 0.0442567C4.28937 3.9354e-05 4.95373 4.98449e-05 5.7587 6.26003e-05L7.01178 6.30771e-05C7.04618 6.30771e-05 7.08014 4.68646e-05 7.11366 3.08906e-05Z" fill="#606E7D"/>
</svg>
