<svg width="16" height="10" viewBox="0 0 16 10" fill="none" xmlns="http://www.w3.org/2000/svg">
<path fill-rule="evenodd" clip-rule="evenodd" d="M16 5C16 4.85268 15.9398 4.71139 15.8326 4.60722C15.7255 4.50305 15.5802 4.44452 15.4286 4.44452L1.95175 4.44452L5.5481 0.949458C5.65539 0.845155 5.71566 0.703687 5.71566 0.55618C5.71566 0.408672 5.65539 0.267206 5.5481 0.162902C5.4408 0.0585983 5.29528 7.3311e-07 5.14355 7.3943e-07C4.99182 7.4575e-07 4.8463 0.0585983 4.739 0.162902L0.167868 4.60672C0.114656 4.65832 0.0724382 4.71962 0.0436327 4.7871C0.0148272 4.85459 -2.32709e-07 4.92694 -2.29358e-07 5C-2.26006e-07 5.07307 0.0148272 5.14541 0.0436327 5.2129C0.0724382 5.28038 0.114656 5.34168 0.167868 5.39328L4.739 9.8371C4.79213 9.88874 4.8552 9.92971 4.92461 9.95766C4.99402 9.98561 5.06842 10 5.14355 10C5.29528 10 5.4408 9.9414 5.5481 9.8371C5.65539 9.73279 5.71566 9.59133 5.71566 9.44382C5.71566 9.29631 5.65539 9.15485 5.5481 9.05054L1.95175 5.55548L15.4286 5.55548C15.5802 5.55548 15.7255 5.49695 15.8326 5.39278C15.9398 5.28861 16 5.14732 16 5Z" fill="#606E7D"/>
</svg>
