<svg width="22" height="22" viewBox="0 0 22 22" fill="none" xmlns="http://www.w3.org/2000/svg">
<path d="M11.3341 6.9474C9.22151 6.9474 7.51039 8.65853 7.51039 10.7711C7.51039 12.8838 9.22151 14.5949 11.3341 14.5949C13.4467 14.5949 15.1579 12.8838 15.1579 10.7711C15.1579 8.65853 13.4467 6.9474 11.3341 6.9474ZM19.8802 9.81521C19.6637 7.87669 18.7944 6.06941 17.4151 4.69015C16.0359 3.31088 14.2286 2.44162 12.2901 2.22508V0.255859H10.3782V2.22508C8.43968 2.44162 6.6324 3.31088 5.25314 4.69015C3.87387 6.06941 3.0046 7.87669 2.78807 9.81521H0.818848V11.7271H2.78807C3.0046 13.6656 3.87387 15.4729 5.25314 16.8521C6.6324 18.2314 8.43968 19.1007 10.3782 19.3172V21.2864H12.2901V19.3172C14.2286 19.1007 16.0359 18.2314 17.4151 16.8521C18.7944 15.4729 19.6637 13.6656 19.8802 11.7271H21.8494V9.81521H19.8802ZM11.3341 17.4627C7.63466 17.4627 4.64259 14.4706 4.64259 10.7711C4.64259 7.07167 7.63466 4.0796 11.3341 4.0796C15.0336 4.0796 18.0257 7.07167 18.0257 10.7711C18.0257 14.4706 15.0336 17.4627 11.3341 17.4627Z" fill="#272265"/>
</svg>
