<svg width="50" height="50" viewBox="0 0 50 50" fill="none" xmlns="http://www.w3.org/2000/svg">
<rect width="50" height="50" rx="25" fill="#F7F7F7"/>
<path d="M25 34.0035C23.7369 32.9261 22.5662 31.745 21.5 30.4725C19.9 28.5615 18 25.7155 18 23.0035C17.9993 21.6185 18.4095 20.2644 19.1787 19.1125C19.9479 17.9607 21.0415 17.063 22.3211 16.5329C23.6007 16.0028 25.0087 15.8643 26.3671 16.1348C27.7255 16.4053 28.9731 17.0727 29.952 18.0525C30.6038 18.7014 31.1203 19.473 31.4719 20.3229C31.8234 21.1727 32.0029 22.0838 32 23.0035C32 25.7155 30.1 28.5615 28.5 30.4725C27.4338 31.745 26.2631 32.9261 25 34.0035ZM25 20.0035C24.2044 20.0035 23.4413 20.3196 22.8787 20.8822C22.3161 21.4448 22 22.2079 22 23.0035C22 23.7992 22.3161 24.5622 22.8787 25.1248C23.4413 25.6874 24.2044 26.0035 25 26.0035C25.7957 26.0035 26.5587 25.6874 27.1213 25.1248C27.6839 24.5622 28 23.7992 28 23.0035C28 22.2079 27.6839 21.4448 27.1213 20.8822C26.5587 20.3196 25.7957 20.0035 25 20.0035Z" fill="#606E7D"/>
</svg>
