<svg width="23" height="15" viewBox="0 0 23 15" fill="none" xmlns="http://www.w3.org/2000/svg">
<path fill-rule="evenodd" clip-rule="evenodd" d="M16.1768 14.0784C19.9455 14.0784 23.0006 10.9431 23.0006 7.07541C23.0006 3.20775 19.9455 0.0723877 16.1768 0.0723877C14.4879 0.0723877 12.9423 0.702075 11.7508 1.74517C10.5592 0.702089 9.01364 0.0724107 7.32475 0.0724107C3.55608 0.0724107 0.500977 3.20777 0.500977 7.07544C0.500977 10.9431 3.55608 14.0785 7.32475 14.0785C9.01366 14.0785 10.5593 13.4488 11.7508 12.4057C12.9424 13.4488 14.4879 14.0784 16.1768 14.0784Z" fill="#ED0006"/>
<path fill-rule="evenodd" clip-rule="evenodd" d="M11.751 12.4056C13.2183 11.1212 14.1487 9.20979 14.1487 7.07541C14.1487 4.94104 13.2183 3.02968 11.751 1.74519C12.9425 0.702085 14.4881 0.0723877 16.1771 0.0723877C19.9457 0.0723877 23.0008 3.20775 23.0008 7.07541C23.0008 10.9431 19.9457 14.0784 16.1771 14.0784C14.4881 14.0784 12.9425 13.4487 11.751 12.4056Z" fill="#F9A000"/>
<path fill-rule="evenodd" clip-rule="evenodd" d="M11.7502 12.4057C13.2175 11.1212 14.1479 9.20984 14.1479 7.07546C14.1479 4.94109 13.2175 3.02972 11.7502 1.74524C10.2829 3.02972 9.35254 4.94109 9.35254 7.07546C9.35254 9.20984 10.2829 11.1212 11.7502 12.4057Z" fill="#FF5E00"/>
</svg>
