<svg width="9" height="15" viewBox="0 0 9 15" fill="none" xmlns="http://www.w3.org/2000/svg">
<path d="M8 0H1C0.734784 0 0.48043 0.112882 0.292893 0.313814C0.105357 0.514746 0 0.787268 0 1.07143V13.9286C0 14.2127 0.105357 14.4853 0.292893 14.6862C0.48043 14.8871 0.734784 15 1 15H8C8.26522 15 8.51957 14.8871 8.70711 14.6862C8.89464 14.4853 9 14.2127 9 13.9286V1.07143C9 0.787268 8.89464 0.514746 8.70711 0.313814C8.51957 0.112882 8.26522 0 8 0ZM5 13.9286H4V12.8571H5V13.9286ZM1 11.7857V1.07143H8V11.7857H1Z" fill="#606E7D"/>
</svg>
