<svg width="237" height="252" viewBox="0 0 237 252" fill="none" xmlns="http://www.w3.org/2000/svg">
<path opacity="0.6" d="M130.295 56.7452C122.805 54.9713 114.566 56.6003 108.592 62.4146C101.706 69.1174 97.0652 77.8721 95.5626 86.9965C90.9698 114.898 157.504 103.993 147.69 71.6086C145.341 63.8573 137.93 58.5532 130.295 56.7452Z" fill="#EDF2FF"/>
<path d="M148.758 38.8562C148.694 39.1332 148.63 39.4103 148.572 39.6744C148.572 39.6794 148.57 39.6843 148.568 39.6888C148.566 39.6932 148.563 39.6971 148.559 39.7002C147.48 44.2099 146.529 47.283 144.756 50.195L138.564 44.2937L141.949 37.8705L142.168 37.4646V37.4582L142.174 37.4453L142.219 37.4582L142.926 37.6064L148.758 38.8562Z" fill="#F9B384"/>
<path d="M149.915 34.1011C149.902 34.3008 149.883 34.5005 149.857 34.7002C149.775 35.3267 149.659 35.9482 149.51 36.5621C149.414 36.9744 149.304 37.3867 149.189 37.7797C149.054 38.25 148.906 38.701 148.765 39.1133C148.726 39.2164 148.694 39.3195 148.662 39.4161C148.636 39.5063 148.604 39.5901 148.572 39.6738C148.572 39.6788 148.571 39.6837 148.569 39.6882C148.566 39.6926 148.563 39.6965 148.559 39.6996C148.514 39.822 148.476 39.938 148.431 40.0539C148.429 40.0676 148.425 40.0808 148.418 40.0926C148.386 40.1892 148.347 40.2794 148.315 40.3696C148.09 40.9688 147.93 41.336 147.93 41.336C145.534 40.943 143.793 39.6609 142.553 38.0052C142.425 37.8377 142.303 37.6702 142.187 37.4963C142.181 37.4834 142.174 37.4769 142.168 37.4641V37.4576C140.575 35.0868 139.855 32.1232 139.528 29.9006C139.521 29.8748 139.521 29.8555 139.515 29.8297C139.399 29.0244 139.335 28.3157 139.297 27.781C139.287 27.638 139.308 27.4946 139.356 27.3598C139.405 27.225 139.481 27.1017 139.579 26.9977C139.677 26.8936 139.796 26.8111 139.927 26.7552C140.059 26.6993 140.201 26.6713 140.344 26.6729L141.281 26.6858L142.309 24.9463L149.542 28.1804C149.767 29.3581 149.902 30.5513 149.947 31.7496C149.98 32.5334 149.97 33.3185 149.915 34.1011Z" fill="#F9B384"/>
<path d="M145.303 35.0876L142.926 37.6066L142.168 37.4649V37.4584C140.575 35.0876 139.855 32.124 139.528 29.9014L141.365 30.333C141.448 31.5442 142.451 34.0246 142.451 34.0246L145.303 35.0876Z" fill="#E28B6D"/>
<path d="M142.091 30.2554C141.339 30.8804 140.106 30.2168 139.515 29.8302C139.399 29.0249 139.335 28.3162 139.297 27.7815C139.287 27.6385 139.308 27.4951 139.356 27.3603C139.405 27.2255 139.481 27.1022 139.579 26.9982C139.677 26.8942 139.796 26.8116 139.927 26.7557C140.059 26.6998 140.201 26.6718 140.344 26.6734L141.281 26.6863C141.281 26.6863 143.022 29.4759 142.091 30.2554Z" fill="#E28B6D"/>
<path d="M149.946 31.7499L149.632 31.7093L144.199 30.458L142.451 34.0265L145.051 35.2367C144.254 35.5154 143.223 36.1491 142.187 37.499C143.454 39.3941 145.291 40.9037 147.928 41.3366C147.928 41.3366 149.69 37.2635 149.914 34.1049C149.969 33.3211 149.979 32.5349 149.946 31.7499ZM145.834 35.0383C145.988 34.5229 145.983 33.7068 144.772 33.1761L146.356 33.2888L146.568 35.009C146.324 34.9816 146.076 34.9915 145.834 35.0383Z" fill="#F9B384"/>
<path d="M149.464 44.5575C143.606 59.4526 132.474 76.5252 121.92 88.1539C118.047 92.4188 114.257 95.9493 110.833 98.3781L105.187 83.773L104.48 81.9433L106.253 80.352L106.575 80.0621L127.033 61.7074L140.336 39.6548L149.464 44.5575Z" fill="#1F3C88"/>
<path d="M119.491 227.791L106.159 228.333L104.062 237.697L116.57 239.658L119.491 227.791Z" fill="#F9B384"/>
<path d="M128.084 251.354L116.571 239.658L104.062 237.696L101.026 251.253L128.084 251.354Z" fill="#D3DFFF"/>
<path d="M103.366 241.092L103.244 241.725L109.429 242.932L109.552 242.298L103.366 241.092Z" fill="#708CD5"/>
<path d="M120.202 243.61L116.266 245.299L116.519 245.891L120.454 244.203L120.202 243.61Z" fill="#708CD5"/>
<path d="M122.691 245.865L118.755 247.554L119.008 248.146L122.944 246.458L122.691 245.865Z" fill="#708CD5"/>
<path d="M89.9395 135.542L113.261 179.077L101.029 231.33L123.762 231.203L136.366 189.971C138.447 183.164 137.947 175.826 134.962 169.366L121.291 139.778L89.9395 135.542Z" fill="#102048"/>
<path d="M86.9249 126.088C71.8746 146.227 52.0646 157.559 29.987 164.685C30.4213 163.916 30.7847 163.11 31.0725 162.275C31.9012 159.827 31.8112 157.321 29.987 154.731L29.3125 147.722L69.8962 117.648L79.5957 124.206L86.9249 126.088Z" fill="#DDA143"/>
<path d="M7.8916 117.193C15.7835 132.571 16.2057 153.906 29.9885 154.733L94.2047 113.202L75.3106 80.3311L23.9009 100.684L7.8916 117.193Z" fill="#C68D35"/>
<path opacity="0.3" d="M31.0729 162.274C31.9015 159.826 31.8116 157.32 29.9873 154.73C42.1255 148.58 56.5678 138.813 71.9392 127.588C59.3381 140.38 46 152.284 31.0729 162.274Z" fill="#C68D35"/>
<path d="M88.6139 119.229C74.1832 144.557 49.8742 156.02 18.2637 165.363L27.7762 171.674C29.2998 172.684 31.091 173.211 32.9171 173.187C34.7432 173.163 36.5198 172.588 38.0161 171.538C57.8969 157.585 76.1075 143.475 89.9662 128.953L88.6139 119.229Z" fill="#F3AD39"/>
<path d="M94.2513 80.105C75.7013 71.7734 45.5054 85.9551 15.589 99.5961C12.2218 101.132 9.28275 103.474 7.03077 106.417C4.77878 109.361 3.28296 112.814 2.67507 116.474L0 132.571C17.5876 105.66 54.4374 87.5443 94.2513 80.105Z" fill="#F3AD39"/>
<path d="M107.172 80.7003C107.088 83.5028 106.973 85.8543 106.998 86.3053L96.2519 87.9739L90.0918 83.4513C93.0209 80.0947 94.3827 72.4346 96.0785 65.7988L102.83 69.8383L107.21 72.4539C107.326 74.683 107.268 77.9101 107.172 80.7003Z" fill="#F9B384"/>
<path d="M107.171 80.7004C103.953 78.7612 99.7842 75.8041 97.8828 69.1104L102.829 69.8384L107.21 72.454C107.325 74.6831 107.268 77.9102 107.171 80.7004Z" fill="#E28B6D"/>
<path d="M113.563 64.4845C113.643 65.8598 113.468 67.2379 113.049 68.5498C110.936 74.9987 102.945 76.7639 97.0483 68.5111L96.5537 55.7679L100.723 52.1665L114.276 57.4171L113.428 63.0414C113.501 63.5195 113.546 64.0013 113.563 64.4845Z" fill="#F9B384"/>
<path d="M128.722 128.532C126.618 114.059 117.147 92.4991 107.076 83.4155L102.341 92.9137L116.095 131.811L128.722 128.532Z" fill="#708CD5"/>
<path d="M121.958 128.532C118.766 113.74 114.442 98.2282 107.076 83.4154C103.356 87.7122 92.4198 79.3447 92.4198 79.3447L86.7832 84.2069L101.665 135.015L121.958 128.532Z" fill="white"/>
<path d="M135.788 179.792L124.214 175.872L121.403 182.7L132.481 188.687L135.788 179.792Z" fill="#F9B384"/>
<path d="M139.245 203.312L132.481 188.687L121.404 182.7L116.396 194.869L139.245 203.312Z" fill="#D3DFFF"/>
<path d="M134.264 192.51L130.412 193.585L130.584 194.205L134.436 193.13L134.264 192.51Z" fill="#708CD5"/>
<path d="M135.658 195.41L131.804 196.484L131.976 197.104L135.83 196.03L135.658 195.41Z" fill="#708CD5"/>
<path d="M120.043 185.983L119.756 186.56L126.393 189.888L126.681 189.312L120.043 185.983Z" fill="#708CD5"/>
<path d="M101.965 120.089C117.918 121.235 134.318 124.091 148.912 130.436C156.776 133.856 159.387 144.676 155.8 152.484L141.349 183.937L120.38 177.379L133.71 149.548C93.4236 150.754 89.0127 135.912 89.0127 135.912L101.965 120.089Z" fill="#1F3C88"/>
<path d="M109.633 129.586C104.378 139.024 96.7151 144.21 87.2469 147.831L86.1677 138.219L84.1893 120.579L81.1445 93.3918L83.1744 83.7538L92.4178 79.3472C102.567 90.0862 105.856 114.084 109.633 129.586Z" fill="#708CD5"/>
<path d="M97.489 62.776C97.6656 59.29 98.6292 57.4262 101.217 56.348C106.131 60.8384 115.202 60.6766 119.738 56.536C118.1 55.9633 116.904 55.5435 115.723 54.3079C115.046 53.5992 114.706 53.1268 113.83 51.3746C110.679 45.0729 98.9152 44.6441 97.2558 50.7108C89.9757 54.2542 93.4928 59.6268 94.6808 62.8926L97.489 62.776Z" fill="#102048"/>
<path d="M99.9341 103.636L100.763 97.5668L104.483 95.6445C104.483 95.6445 106.328 95.9567 105.551 98.3484C104.774 100.74 99.9341 103.636 99.9341 103.636Z" fill="#E28B6D"/>
<path d="M97.5894 105.063L99.9339 103.635L102.956 98.5892L107.009 96.5542C107.066 96.5258 107.127 96.5094 107.191 96.506C107.254 96.5027 107.317 96.5124 107.377 96.5346C107.436 96.5569 107.49 96.5912 107.536 96.6353C107.581 96.6795 107.617 96.7326 107.641 96.7913C108.154 97.2286 108.437 97.8629 108.441 98.7355C109.353 99.4996 109.527 100.357 109.116 101.287C110.373 101.822 110.845 102.481 110.474 103.271C111.039 104.199 111.372 105.089 111.147 106.177L104.911 110.697L98.7851 112.971L97.5894 105.063Z" fill="#F9B384"/>
<path opacity="0.3" d="M99.5599 114.208C97.0226 124.593 92.6546 132.717 86.1669 138.219L84.1885 120.58L99.5599 114.208Z" fill="#1F3C88"/>
<path d="M92.4194 79.3447L79.6433 80.8738C77.4524 81.1391 75.3774 82.0079 73.6488 83.3839C71.9202 84.7599 70.6055 86.5894 69.8506 88.6693C65.9366 99.3931 63.2845 110.883 62.6498 120.747C62.2474 127.003 68.0043 131.869 74.1058 130.51C84.1156 128.279 92.2957 121.788 99.5589 114.209L98.3563 103.806L77.9135 113.606L92.4194 79.3447Z" fill="#708CD5"/>
<path d="M99.377 65.079C98.6012 66.7763 97.3337 67.9256 95.6923 67.1709C94.051 66.4162 92.0237 64.0057 93.0764 61.6787C93.8456 59.9783 96.1797 59.8773 97.8213 60.6318C99.4628 61.3862 100.153 63.3825 99.377 65.079Z" fill="#F9B384"/>
<path d="M84.472 97.8418C84.0113 99.185 83.5152 100.514 83.0107 101.84C82.5128 103.168 81.9744 104.479 81.4583 105.8L79.8276 109.728C79.2646 111.03 78.6987 112.33 78.0882 113.613L77.8555 113.518C78.3086 112.171 78.8068 110.844 79.3077 109.517L80.8686 105.56C81.4165 104.252 81.9415 102.934 82.508 101.635C83.0677 100.332 83.6355 99.0323 84.2388 97.7471L84.472 97.8418Z" fill="#1F3C88"/>
<path d="M77.958 113.411C79.6244 112.54 81.2969 111.682 82.9817 110.85C84.6611 110.007 86.3596 109.203 88.0477 108.378L93.1502 105.983C94.86 105.203 96.5708 104.426 98.3032 103.693L98.4111 103.921C96.7522 104.807 95.0725 105.65 93.3914 106.491L88.3214 108.955C86.6191 109.749 84.9264 110.566 83.2147 111.342C81.5088 112.129 79.7903 112.891 78.0658 113.64L77.958 113.411Z" fill="#1F3C88"/>
<g opacity="0.3">
<path opacity="0.3" d="M99.6223 86.7087C100.643 87.5458 101.937 87.9712 103.254 87.902C104.565 87.7944 105.793 87.2135 106.71 86.2671L106.909 86.4214C106.17 87.6484 104.759 88.4575 103.293 88.5419C102.568 88.586 101.842 88.4592 101.173 88.1717C100.505 87.8843 99.9129 87.4441 99.4443 86.8864L99.6223 86.7087Z" fill="#1F3C88"/>
<path opacity="0.3" d="M108.971 117.918C109.775 117.116 110.491 116.228 111.105 115.272C112.322 113.361 113.111 111.208 113.418 108.962C113.571 107.835 113.605 106.695 113.518 105.561L113.766 105.524C114.011 106.674 114.082 107.854 113.975 109.024C113.763 111.386 112.928 113.647 111.555 115.577C110.878 116.537 110.063 117.389 109.136 118.107L108.971 117.918Z" fill="#1F3C88"/>
<path opacity="0.3" d="M110.518 118.231C111.426 117.608 112.296 116.931 113.125 116.205C113.946 115.48 114.7 114.691 115.466 113.874L115.672 114.019C115.14 115.036 114.418 115.942 113.547 116.687C112.689 117.447 111.702 118.046 110.634 118.455L110.518 118.231Z" fill="#1F3C88"/>
</g>
<path d="M97.0948 64.0469C97.0017 63.7526 96.8656 63.4737 96.691 63.2195C96.5234 62.9738 96.3136 62.7599 96.0714 62.5878C95.5719 62.2416 94.9774 62.0597 94.3703 62.0671L94.3359 61.8814C94.6671 61.7611 95.0238 61.7293 95.3709 61.7892C95.7254 61.8469 96.0613 61.9875 96.3514 62.1996C96.6416 62.4117 96.8779 62.6895 97.041 63.0103C97.2058 63.3214 97.2887 63.6695 97.2819 64.0217L97.0948 64.0469Z" fill="#E28B6D"/>
<path d="M104.365 59.9168C103.274 59.6159 102.993 61.5182 103.16 62.2127C103.317 62.8634 103.844 63.0514 104.296 62.5308C104.711 62.0523 105.322 60.1804 104.365 59.9168Z" fill="#102048"/>
<path d="M111.375 61.1274C111.233 60.5288 110.558 60.3113 110.183 60.7931C110.027 61.0185 109.931 61.2797 109.903 61.5525C109.84 61.9675 109.727 62.4866 109.87 62.9133C110.048 63.448 110.536 63.6893 110.896 63.1827C111.246 62.6807 111.521 61.7594 111.375 61.1274Z" fill="#102048"/>
<path d="M107.583 62.0181C107.573 62.5211 107.545 63.026 107.559 63.5105C107.558 63.73 107.589 63.9484 107.652 64.1586C107.742 64.3547 107.865 64.5336 108.016 64.6872C108.199 64.8809 108.367 65.0894 108.517 65.3107C108.598 65.4406 108.661 65.581 108.704 65.728C108.764 65.9152 108.75 66.118 108.665 66.2953C108.576 66.4521 108.437 66.5745 108.27 66.6431C108.146 66.6991 108.019 66.7469 107.889 66.786C107.658 66.8389 107.435 66.9221 107.226 67.0334L107.067 66.8577C107.258 66.6629 107.483 66.5053 107.731 66.3927C107.95 66.2919 108.185 66.154 108.189 66.0664C108.185 65.9063 108.126 65.7525 108.022 65.6315C107.88 65.4398 107.727 65.257 107.563 65.0839C107.355 64.8814 107.199 64.6307 107.109 64.3539C107.02 64.0771 106.999 63.7825 107.049 63.4958C107.093 62.9788 107.194 62.4684 107.352 61.9741L107.583 62.0181Z" fill="#102048"/>
<path d="M103.907 66.6289L108.364 68.8032C107.601 70.2931 104.188 70.132 103.907 66.6289Z" fill="white"/>
<path opacity="0.4" d="M113.05 68.5495C112.925 68.5754 112.798 68.5884 112.671 68.5882C112.102 68.5882 111.558 68.3618 111.156 67.9589C110.754 67.5559 110.528 67.0094 110.528 66.4396C110.528 65.8698 110.754 65.3233 111.156 64.9203C111.558 64.5174 112.102 64.291 112.671 64.291C112.979 64.2909 113.283 64.3568 113.563 64.4843C113.643 65.8595 113.469 67.2376 113.05 68.5495Z" fill="#FC8879"/>
<path opacity="0.4" d="M101.057 67.2461C102.24 67.2461 103.198 66.2846 103.198 65.0986C103.198 63.9126 102.24 62.9512 101.057 62.9512C99.8746 62.9512 98.916 63.9126 98.916 65.0986C98.916 66.2846 99.8746 67.2461 101.057 67.2461Z" fill="#FC8879"/>
<path d="M157.263 6.99139C155.736 5.65458 154.062 3.41855 152.351 0.956711C153.452 0.791139 154.388 0.52603 154.893 0C156.091 2.58118 157.359 4.19422 159.255 6.25969C158.481 6.00392 157.988 6.74626 157.263 6.99139Z" fill="#C6EAE9"/>
<path d="M68.2854 63.4221C66.9098 62.2181 65.4022 60.2047 63.8613 57.9875C64.853 57.8384 65.6964 57.5997 66.1505 57.126C67.2295 59.4504 68.3714 60.903 70.0788 62.7632C69.3819 62.5328 68.938 63.2014 68.2854 63.4221Z" fill="#FBD682"/>
<path d="M93.374 44.4158C93.9753 43.0317 95.0971 41.4128 96.3499 39.7349C96.5948 40.5838 96.8776 41.2891 97.2601 41.6193C95.8679 42.9078 95.0666 44.123 94.0764 45.8949C94.1278 45.2483 93.6168 44.9568 93.374 44.4158Z" fill="#FBD682"/>
<path d="M156.724 92.1133C157.392 90.5763 158.638 88.7793 160.029 86.9155C160.301 87.8581 160.615 88.6415 161.039 89.0071C159.494 90.4373 158.604 91.7873 157.504 93.7547C157.561 93.0377 156.994 92.7138 156.724 92.1133Z" fill="#EE6F57"/>
<path d="M186.835 7.53195C187.503 5.99493 188.748 4.19796 190.139 2.33398C190.411 3.27668 190.725 4.05993 191.15 4.4257C189.604 5.85593 188.714 7.2058 187.615 9.17317C187.672 8.45628 187.104 8.13239 186.835 7.53195Z" fill="#708CD5"/>
<path d="M42.0531 56.5086C41.4518 55.1244 40.33 53.5056 39.0772 51.8276C38.8323 52.6764 38.5495 53.3819 38.167 53.7121C39.559 55.0006 40.3605 56.2158 41.3506 57.9875C41.2993 57.341 41.8102 57.0494 42.0531 56.5086Z" fill="#708CD5"/>
<path d="M118.247 32.6998C117.579 31.1627 116.334 29.3658 114.942 27.502C114.671 28.4445 114.356 29.2277 113.932 29.5935C115.477 31.0237 116.367 32.3736 117.467 34.341C117.41 33.6244 117.977 33.3005 118.247 32.6998Z" fill="#D3DFFF"/>
<path d="M177.777 32.0255C175.865 32.4856 173.193 32.6894 170.33 32.8285C170.864 32.0554 171.225 31.3505 171.133 30.8209C173.779 31.058 175.743 30.8723 178.42 30.4595C177.767 30.8573 178.028 31.4639 177.777 32.0255Z" fill="#F5C7BE"/>
<path d="M63.1421 17.7912C64.8642 18.4258 67.2708 18.7065 69.8495 18.8985C69.3677 17.8331 69.0429 16.8603 69.1256 16.1302C66.7428 16.4571 64.9741 16.201 62.563 15.6318C63.1517 16.1803 62.9169 17.0167 63.1421 17.7912Z" fill="#C6EAE9"/>
<path d="M121.892 9.69565C119.955 10.8468 117.143 11.735 114.111 12.5572C114.497 11.1798 114.714 9.94803 114.487 9.0994C117.378 8.93914 119.435 8.22724 122.202 6.99512C121.598 7.7832 122.024 8.72299 121.892 9.69565Z" fill="#EE6F57"/>
<path d="M161.647 62.7998C163.095 63.7729 164.752 65.5074 166.462 67.4332C165.522 67.7104 164.735 68.054 164.347 68.571C163.07 66.4796 161.823 65.2356 159.989 63.6758C160.683 63.8034 161.041 63.1002 161.647 62.7998Z" fill="#C6EAE9"/>
<path d="M136.772 64.3228C138.219 65.2959 139.876 67.0302 141.587 68.9562C140.647 69.2334 139.86 69.5768 139.472 70.0939C138.195 68.0025 136.947 66.7585 135.114 65.1988C135.808 65.3263 136.167 64.6227 136.772 64.3228Z" fill="#FBD682"/>
<path d="M73.4189 34.4995C75.0479 35.5947 76.9133 37.5476 78.8383 39.7155C77.7811 40.0277 76.8952 40.4142 76.4576 40.9964C75.0208 38.6428 73.6164 37.2416 71.5518 35.486C72.3333 35.6294 72.7371 34.8377 73.4189 34.4995Z" fill="#F5C7BE"/>
<path d="M178.846 53.3973C180.051 52.2807 181.293 50.3244 182.546 48.157C181.564 47.8887 180.717 47.5424 180.223 46.9917C179.432 49.324 178.482 50.7293 177.028 52.5013C177.681 52.3362 178.187 53.0915 178.846 53.3973Z" fill="#F5C7BE"/>
<path d="M219.954 49.9682C220.555 48.5831 221.677 46.9651 222.929 45.2871C223.174 46.1361 223.457 46.8414 223.84 47.1715C222.448 48.46 221.646 49.6753 220.656 51.4471C220.707 50.8006 220.196 50.5089 219.954 49.9682Z" fill="#EE6F57"/>
<path d="M205.107 24.6983C204.607 26.6927 203.469 29.142 202.171 31.7058C201.668 30.6537 201.145 29.8016 200.571 29.4736C202.135 27.3856 202.935 25.5577 203.867 22.9434C203.935 23.8092 204.671 24.0523 205.107 24.6983Z" fill="#D3DFFF"/>
<path d="M189.884 67.8531C190.251 69.3138 191.084 71.1076 192.035 72.9852C192.403 72.2147 192.786 71.5906 193.207 71.3505C192.061 69.8212 191.475 68.4826 190.793 66.5679C190.742 67.2025 190.203 67.3799 189.884 67.8531Z" fill="#D3DFFF"/>
<path d="M235.132 21.3872C233.503 22.4824 231.638 24.4351 229.713 26.6032C230.77 26.9152 231.656 27.3019 232.094 27.884C233.531 25.5296 234.936 24.1293 236.999 22.3734C236.218 22.5171 235.814 21.7254 235.132 21.3872Z" fill="#FBD682"/>
</svg>
