<svg width="20" height="18" viewBox="0 0 20 18" fill="none" xmlns="http://www.w3.org/2000/svg">
<path d="M0.0972729 4.9512L3.22469 0.260057C3.33299 0.0975991 3.51534 0 3.71058 0H16.2203C16.4155 0 16.5979 0.0975602 16.7062 0.260057L19.8336 4.9512C19.953 5.1304 19.9642 5.36079 19.8625 5.55065C19.8455 5.58246 19.8256 5.61208 19.8035 5.63969L19.8036 5.63992L10.4214 17.3678C10.3105 17.5063 10.1428 17.5869 9.96537 17.5869C9.78796 17.5869 9.62021 17.5063 9.50938 17.3678L0.127092 5.63992L0.127249 5.63969C0.105175 5.61208 0.0852432 5.5825 0.0681915 5.55065C-0.0333405 5.36079 -0.0221672 5.13036 0.0972729 4.9512ZM7.59811 5.85906L9.96545 14.7366L12.3328 5.85906H7.59811ZM12.0018 4.69114L9.96545 1.63672L7.92914 4.69118H12.0018V4.69114ZM6.83803 4.22234L8.87434 1.16792H4.80177L6.83803 4.22234ZM13.0929 4.22234L15.1291 1.16792H11.0566L13.0929 4.22234ZM13.5415 5.85906L11.2459 14.4676L18.1327 5.85906H13.5415ZM6.38936 5.85906H1.79815L8.68498 14.4676L6.38936 5.85906ZM1.67431 4.69114H5.74689L3.71062 1.63668L1.67431 4.69114ZM16.2203 1.63672L14.184 4.69118H18.2566L16.2203 1.63672Z" fill="white"/>
</svg>
