<svg width="14" height="14" viewBox="0 0 14 14" fill="none" xmlns="http://www.w3.org/2000/svg">
<path d="M7.7304 0.427925C7.45657 0.15401 7.08515 8.27187e-05 6.69783 0H1.4605C1.07315 0 0.701665 0.153873 0.427769 0.427769C0.153873 0.701665 0 1.07315 0 1.4605V6.69783C8.27187e-05 7.08515 0.15401 7.45657 0.427925 7.7304L6.26991 13.5724C6.54379 13.8462 6.91521 14 7.30248 14C7.68975 14 8.06116 13.8462 8.33505 13.5724L13.5724 8.33505C13.8462 8.06116 14 7.68975 14 7.30248C14 6.91521 13.8462 6.54379 13.5724 6.26991L7.7304 0.427925ZM3.65124 5.11173C3.26379 5.11164 2.89226 4.95763 2.61836 4.6836C2.34447 4.40957 2.19065 4.03795 2.19074 3.65051C2.19084 3.26306 2.34485 2.89153 2.61888 2.61763C2.89291 2.34374 3.26453 2.18992 3.65197 2.19001C4.03941 2.19011 4.41095 2.34411 4.68485 2.61815C4.95874 2.89218 5.11256 3.26379 5.11247 3.65124C5.11237 4.03868 4.95836 4.41022 4.68433 4.68412C4.4103 4.95801 4.03868 5.11183 3.65124 5.11173Z" fill="#606E7D"/>
</svg>
