<svg width="16" height="21" viewBox="0 0 16 21" fill="none" xmlns="http://www.w3.org/2000/svg">
<path d="M15.7864 5.26641C15.9227 5.40703 16 5.59687 16 5.79609V20.25C16 20.6648 15.675 21 15.2727 21H0.727273C0.325 21 0 20.6648 0 20.25V0.75C0 0.335156 0.325 0 0.727273 0H10.3795C10.5727 0 10.7591 0.0796875 10.8955 0.220313L15.7864 5.26641ZM14.3227 6.14062L10.0455 1.72969V6.14062H14.3227ZM3.63636 9.79688C3.58814 9.79688 3.5419 9.81663 3.5078 9.85179C3.4737 9.88696 3.45455 9.93465 3.45455 9.98438V11.1094C3.45455 11.1591 3.4737 11.2068 3.5078 11.242C3.5419 11.2771 3.58814 11.2969 3.63636 11.2969H12.3636C12.4119 11.2969 12.4581 11.2771 12.4922 11.242C12.5263 11.2068 12.5455 11.1591 12.5455 11.1094V9.98438C12.5455 9.93465 12.5263 9.88696 12.4922 9.85179C12.4581 9.81663 12.4119 9.79688 12.3636 9.79688H3.63636ZM3.63636 12.9844C3.58814 12.9844 3.5419 13.0041 3.5078 13.0393C3.4737 13.0745 3.45455 13.1221 3.45455 13.1719V14.2969C3.45455 14.3466 3.4737 14.3943 3.5078 14.4295C3.5419 14.4646 3.58814 14.4844 3.63636 14.4844H7.81818C7.8664 14.4844 7.91265 14.4646 7.94675 14.4295C7.98084 14.3943 8 14.3466 8 14.2969V13.1719C8 13.1221 7.98084 13.0745 7.94675 13.0393C7.91265 13.0041 7.8664 12.9844 7.81818 12.9844H3.63636Z" fill="#272265"/>
</svg>
