<svg width="13" height="10" viewBox="0 0 13 10" fill="none" xmlns="http://www.w3.org/2000/svg">
<path d="M6.95877 0.914278C9.23902 0.914278 11.1123 2.6454 11.4288 4.89387H12.7724L10.5116 7.54692L8.25069 4.89387H9.74933C9.60481 4.2446 9.25018 3.66482 8.74334 3.24921C8.2365 2.8336 7.6074 2.60672 6.95877 2.6056C6.02212 2.6056 5.19529 3.07652 4.67206 3.78621L3.56746 2.49285C3.99025 1.99643 4.51166 1.59871 5.09661 1.32643C5.68156 1.05415 6.31651 0.913616 6.95877 0.914278ZM6.70038 9.82855C4.42659 9.82855 2.54684 8.09743 2.23032 5.84897H0.886719L3.14759 3.19591C3.90336 4.07805 4.65268 4.96682 5.40846 5.84897H3.90982C4.05434 6.49823 4.40897 7.07801 4.91581 7.49362C5.42265 7.90923 6.05175 8.13611 6.70038 8.13723C7.63703 8.13723 8.46386 7.66631 8.98709 6.95662L10.0917 8.24998C9.6693 8.7469 9.14798 9.14497 8.56294 9.41729C7.97789 9.68962 7.34274 9.82986 6.70038 9.82855Z" fill="#272265"/>
</svg>
