<svg width="297" height="50" viewBox="0 0 297 50" fill="none" xmlns="http://www.w3.org/2000/svg">
<line x1="246" y1="25.5" x2="-5.96046e-07" y2="25.5" stroke="#F6F6F6"/>
<rect x="247" width="50" height="50" rx="25" fill="#F7F7F7"/>
<path d="M273.952 26.5601L275.212 24.3778C275.293 24.2425 275.257 24.0711 275.14 23.9719L273.808 22.9259C273.835 22.7275 273.853 22.52 273.853 22.3126C273.853 22.1052 273.835 21.8978 273.808 21.6904L275.14 20.6443C275.257 20.5451 275.293 20.3737 275.212 20.2385L273.952 18.0561C273.871 17.9208 273.709 17.8667 273.565 17.9208L271.999 18.5521C271.675 18.2996 271.324 18.0922 270.937 17.9299L270.703 16.2615C270.688 16.1886 270.648 16.123 270.591 16.0754C270.534 16.0279 270.462 16.0013 270.388 16H267.868C267.715 16 267.58 16.1172 267.553 16.2705L267.319 17.9389C266.941 18.1012 266.581 18.3086 266.257 18.5611L264.691 17.9299C264.547 17.8758 264.385 17.9299 264.304 18.0651L263.044 20.2475C262.963 20.3828 262.999 20.5541 263.116 20.6533L264.448 21.6994C264.421 21.8978 264.403 22.1052 264.403 22.3126C264.403 22.52 264.421 22.7275 264.448 22.9349L263.116 23.981C262.999 24.0802 262.963 24.2515 263.044 24.3868L264.304 26.5691C264.385 26.7044 264.547 26.7585 264.691 26.7044L266.257 26.0731C266.581 26.3257 266.932 26.5331 267.319 26.6954L267.553 28.3637C267.58 28.508 267.715 28.6253 267.868 28.6253H270.388C270.541 28.6253 270.676 28.508 270.703 28.3547L270.937 26.6864C271.315 26.524 271.675 26.3166 271.999 26.0641L273.565 26.6954C273.709 26.7495 273.871 26.6954 273.952 26.5601V26.5601ZM269.128 24.1162C268.138 24.1162 267.328 23.3046 267.328 22.3126C267.328 21.3206 268.138 20.509 269.128 20.509C270.118 20.509 270.928 21.3206 270.928 22.3126C270.928 23.3046 270.118 24.1162 269.128 24.1162ZM280.926 31.0331L280.063 30.3657C280.081 30.2395 280.099 30.1042 280.099 29.9689C280.099 29.8337 280.09 29.6984 280.063 29.5721L280.917 28.9048C280.989 28.8417 281.016 28.7335 280.962 28.6433L280.153 27.2455C280.108 27.1553 280 27.1283 279.901 27.1553L278.902 27.5611C278.695 27.3988 278.47 27.2635 278.218 27.1643L278.065 26.1002C278.061 26.052 278.04 26.0068 278.005 25.9735C277.97 25.9402 277.924 25.9211 277.876 25.9198H276.265C276.166 25.9198 276.076 25.992 276.067 26.0912L275.914 27.1553C275.671 27.2635 275.437 27.3898 275.23 27.5521L274.231 27.1463C274.185 27.129 274.134 27.1286 274.088 27.1451C274.042 27.1616 274.003 27.194 273.979 27.2365L273.169 28.6343C273.124 28.7245 273.133 28.8327 273.214 28.8958L274.069 29.5631C274.031 29.8263 274.031 30.0935 274.069 30.3567L273.214 31.024C273.142 31.0872 273.115 31.1954 273.169 31.2856L273.979 32.6834C274.024 32.7735 274.132 32.8006 274.231 32.7735L275.23 32.3677C275.437 32.5301 275.662 32.6653 275.914 32.7645L276.067 33.8287C276.085 33.9279 276.166 34 276.265 34H277.876C277.975 34 278.065 33.9279 278.074 33.8287L278.227 32.7645C278.47 32.6563 278.704 32.5301 278.902 32.3677L279.91 32.7735C280 32.8096 280.108 32.7735 280.162 32.6834L280.971 31.2856C281.025 31.2044 280.998 31.0962 280.926 31.0331V31.0331ZM277.066 31.1774C276.743 31.1772 276.434 31.0488 276.206 30.8203C275.978 30.5918 275.85 30.282 275.851 29.959C275.851 29.636 275.979 29.3263 276.207 29.098C276.435 28.8697 276.744 28.7415 277.066 28.7416C277.389 28.7417 277.698 28.8701 277.926 29.0986C278.154 29.3271 278.282 29.6369 278.281 29.9599C278.281 30.2829 278.153 30.5927 277.925 30.821C277.697 31.0493 277.388 31.1775 277.066 31.1774V31.1774Z" fill="#606E7D"/>
</svg>
