<svg width="17" height="17" viewBox="0 0 17 17" fill="none" xmlns="http://www.w3.org/2000/svg">
<path d="M10.3431 9.97345L11.5331 7.91233C11.6096 7.78457 11.5756 7.62275 11.4651 7.52906L10.2071 6.54108C10.2326 6.35371 10.2496 6.15782 10.2496 5.96192C10.2496 5.76603 10.2326 5.57014 10.2071 5.37425L11.4651 4.38627C11.5756 4.29259 11.6096 4.13076 11.5331 4.00301L10.3431 1.94188C10.2666 1.81413 10.1137 1.76303 9.97765 1.81413L8.49867 2.41032C8.19267 2.17184 7.86117 1.97595 7.49568 1.82265L7.27468 0.246994C7.26042 0.17811 7.2232 0.116135 7.16914 0.0712498C7.11507 0.0263647 7.04738 0.00123894 6.97718 0H4.59721C4.45271 0 4.32521 0.110721 4.29971 0.255511L4.07871 1.83116C3.72172 1.98447 3.38172 2.18036 3.07572 2.41884L1.59674 1.82265C1.46074 1.77154 1.30774 1.82265 1.23124 1.9504L0.0412573 4.01152C-0.0352419 4.13928 -0.00124214 4.3011 0.109257 4.39479L1.36724 5.38277C1.34174 5.57014 1.32474 5.76603 1.32474 5.96192C1.32474 6.15782 1.34174 6.35371 1.36724 6.5496L0.109257 7.53758C-0.00124214 7.63126 -0.0352419 7.79309 0.0412573 7.92084L1.23124 9.98197C1.30774 10.1097 1.46074 10.1608 1.59674 10.1097L3.07572 9.51353C3.38172 9.752 3.71322 9.9479 4.07871 10.1012L4.29971 11.6769C4.32521 11.8131 4.45271 11.9238 4.59721 11.9238H6.97718C7.12168 11.9238 7.24918 11.8131 7.27468 11.6683L7.49568 10.0927C7.85267 9.93938 8.19267 9.74349 8.49867 9.50501L9.97765 10.1012C10.1137 10.1523 10.2666 10.1012 10.3431 9.97345ZM5.7872 7.66533C4.85221 7.66533 4.08721 6.8988 4.08721 5.96192C4.08721 5.02505 4.85221 4.25852 5.7872 4.25852C6.72219 4.25852 7.48718 5.02505 7.48718 5.96192C7.48718 6.8988 6.72219 7.66533 5.7872 7.66533ZM16.9306 14.1979L16.1146 13.5676C16.1316 13.4484 16.1486 13.3206 16.1486 13.1929C16.1486 13.0651 16.1401 12.9374 16.1146 12.8181L16.9221 12.1879C16.9901 12.1283 17.0156 12.0261 16.9646 11.9409L16.1996 10.6207C16.1571 10.5356 16.0551 10.51 15.9616 10.5356L15.0181 10.9188C14.8226 10.7655 14.6101 10.6378 14.3721 10.5441L14.2276 9.53908C14.2242 9.49356 14.2041 9.45091 14.1711 9.41943C14.1381 9.38795 14.0946 9.36988 14.0491 9.36874H12.5276C12.4341 9.36874 12.3491 9.43687 12.3406 9.53056L12.1961 10.5356C11.9666 10.6378 11.7456 10.757 11.5501 10.9103L10.6066 10.5271C10.5633 10.5107 10.5156 10.5103 10.4721 10.5259C10.4285 10.5415 10.3918 10.5721 10.3686 10.6122L9.60366 11.9324C9.56116 12.0175 9.56966 12.1197 9.64616 12.1794L10.4536 12.8096C10.4186 13.0582 10.4186 13.3105 10.4536 13.5591L9.64616 14.1894C9.57816 14.249 9.55266 14.3512 9.60366 14.4364L10.3686 15.7565C10.4111 15.8417 10.5131 15.8672 10.6066 15.8417L11.5501 15.4584C11.7456 15.6117 11.9581 15.7395 12.1961 15.8332L12.3406 16.8382C12.3576 16.9319 12.4341 17 12.5276 17H14.0491C14.1426 17 14.2276 16.9319 14.2361 16.8382L14.3806 15.8332C14.6101 15.731 14.8311 15.6117 15.0181 15.4584L15.9701 15.8417C16.0551 15.8758 16.1571 15.8417 16.2081 15.7565L16.9731 14.4364C17.0241 14.3597 16.9986 14.2575 16.9306 14.1979ZM13.2841 14.3342C12.9797 14.3341 12.6877 14.2128 12.4725 13.997C12.2573 13.7812 12.1365 13.4886 12.1366 13.1835C12.1367 12.8785 12.2578 12.5859 12.4731 12.3703C12.6885 12.1547 12.9805 12.0336 13.285 12.0337C13.5894 12.0338 13.8813 12.1551 14.0965 12.3709C14.3117 12.5867 14.4326 12.8793 14.4325 13.1844C14.4323 13.4894 14.3113 13.7819 14.0959 13.9976C13.8806 14.2132 13.5886 14.3343 13.2841 14.3342Z" fill="#C4C4C6"/>
<path d="M10.3431 9.97345L11.5331 7.91233C11.6096 7.78457 11.5756 7.62275 11.4651 7.52906L10.2071 6.54108C10.2326 6.35371 10.2496 6.15782 10.2496 5.96192C10.2496 5.76603 10.2326 5.57014 10.2071 5.37425L11.4651 4.38627C11.5756 4.29259 11.6096 4.13076 11.5331 4.00301L10.3431 1.94188C10.2666 1.81413 10.1137 1.76303 9.97765 1.81413L8.49867 2.41032C8.19267 2.17184 7.86117 1.97595 7.49568 1.82265L7.27468 0.246994C7.26042 0.17811 7.2232 0.116135 7.16914 0.0712498C7.11507 0.0263647 7.04738 0.00123894 6.97718 0H4.59721C4.45271 0 4.32521 0.110721 4.29971 0.255511L4.07871 1.83116C3.72172 1.98447 3.38172 2.18036 3.07572 2.41884L1.59674 1.82265C1.46074 1.77154 1.30774 1.82265 1.23124 1.9504L0.0412573 4.01152C-0.0352419 4.13928 -0.00124214 4.3011 0.109257 4.39479L1.36724 5.38277C1.34174 5.57014 1.32474 5.76603 1.32474 5.96192C1.32474 6.15782 1.34174 6.35371 1.36724 6.5496L0.109257 7.53758C-0.00124214 7.63126 -0.0352419 7.79309 0.0412573 7.92084L1.23124 9.98197C1.30774 10.1097 1.46074 10.1608 1.59674 10.1097L3.07572 9.51353C3.38172 9.752 3.71322 9.9479 4.07871 10.1012L4.29971 11.6769C4.32521 11.8131 4.45271 11.9238 4.59721 11.9238H6.97718C7.12168 11.9238 7.24918 11.8131 7.27468 11.6683L7.49568 10.0927C7.85267 9.93938 8.19267 9.74349 8.49867 9.50501L9.97765 10.1012C10.1137 10.1523 10.2666 10.1012 10.3431 9.97345ZM5.7872 7.66533C4.85221 7.66533 4.08721 6.8988 4.08721 5.96192C4.08721 5.02505 4.85221 4.25852 5.7872 4.25852C6.72219 4.25852 7.48718 5.02505 7.48718 5.96192C7.48718 6.8988 6.72219 7.66533 5.7872 7.66533Z" fill="#12131A"/>
</svg>
