<svg width="31" height="31" viewBox="0 0 31 31" fill="none" xmlns="http://www.w3.org/2000/svg">
<path d="M28.3818 12.9865C28.3818 11.7995 28.2391 10.646 27.9727 9.54085C27.2114 7.95396 26.1556 6.53422 24.877 5.35202C22.532 3.95113 19.7697 3.18764 16.8366 3.29457C8.74433 3.5896 2.42349 10.389 2.71841 18.4812C2.76166 19.6651 2.94568 20.8103 3.25118 21.9031C3.9113 23.1609 4.75899 24.3054 5.75781 25.2985C8.05059 26.7845 10.7839 27.6487 13.7198 27.6487C21.8173 27.6487 28.3818 21.0841 28.3818 12.9865ZM20.798 10.3056C22.6228 10.3056 24.1072 11.7296 24.1072 13.6148H22.4315C22.4315 12.6722 21.6987 11.9813 20.798 11.9813C19.8974 11.9813 19.1646 12.6722 19.1646 13.6148H17.4889C17.4889 11.7296 18.9733 10.3056 20.798 10.3056ZM10.202 10.3056C12.0267 10.3056 13.5112 11.7296 13.5112 13.6148H11.8355C11.8355 12.6722 11.1027 11.9813 10.202 11.9813C9.30129 11.9813 8.56848 12.6722 8.56848 13.6148H6.89279C6.89279 11.7296 8.37724 10.3056 10.202 10.3056ZM7.4022 19.6771L8.80957 18.7677C10.0898 20.7486 12.2459 22.0918 14.5773 22.3608C17.5684 22.7061 20.5573 21.2953 22.1905 18.7677L23.598 19.6771C21.8193 22.4298 18.7124 24.0877 15.4705 24.0877C15.1097 24.0877 14.7478 24.0673 14.3853 24.0254C11.5617 23.6998 8.95117 22.0743 7.4022 19.6771Z" fill="#FFCE00"/>
<path d="M27.9728 9.54102C28.2392 10.6462 28.3819 11.7996 28.3819 12.9867C28.3819 21.0843 21.8174 27.6488 13.7198 27.6488C10.784 27.6488 8.05059 26.7847 5.75781 25.2987C8.25879 27.7854 11.703 29.3245 15.5002 29.3245C23.123 29.3245 29.3245 23.123 29.3245 15.5002C29.3245 13.3677 28.8388 11.3465 27.9728 9.54102Z" fill="#FFB100"/>
<path d="M16.8367 3.29461C19.7698 3.18768 22.532 3.95107 24.8771 5.35205C22.411 3.07164 19.1157 1.67578 15.5001 1.67578C7.87733 1.67578 1.67578 7.87733 1.67578 15.5001C1.67578 17.8093 2.24573 19.9877 3.25115 21.9031C2.94565 20.8104 2.76163 19.6651 2.71838 18.4813C2.42346 10.389 8.7443 3.58964 16.8367 3.29461Z" fill="#FFE454"/>
<path d="M15.5 0C6.95331 0 0 6.95331 0 15.5C0 24.0467 6.95331 31 15.5 31C24.0467 31 31 24.0467 31 15.5C31 6.95331 24.0468 0 15.5 0ZM15.5 29.3243C11.7028 29.3243 8.25857 27.7852 5.75759 25.2984C4.75888 24.3054 3.91108 23.1609 3.25096 21.9031C2.24565 19.9876 1.6757 17.8092 1.6757 15.5C1.6757 7.87725 7.87725 1.6757 15.5 1.6757C19.1156 1.6757 22.4109 3.07156 24.8769 5.35197C26.1555 6.53418 27.2112 7.95391 27.9725 9.5408C28.8387 11.3463 29.3243 13.3675 29.3243 15.5C29.3243 23.1228 23.1228 29.3243 15.5 29.3243Z" fill="black"/>
<path d="M10.2018 11.9814C11.1025 11.9814 11.8353 12.6723 11.8353 13.6149H13.511C13.511 11.7297 12.0265 10.3057 10.2018 10.3057C8.37704 10.3057 6.89258 11.7297 6.89258 13.6149H8.56828C8.56828 12.6723 9.30119 11.9814 10.2018 11.9814Z" fill="black"/>
<path d="M20.798 11.9814C21.6986 11.9814 22.4315 12.6723 22.4315 13.6149H24.1072C24.1072 11.7297 22.6227 10.3057 20.798 10.3057C18.9732 10.3057 17.4888 11.7297 17.4888 13.6149H19.1645C19.1645 12.6723 19.8973 11.9814 20.798 11.9814Z" fill="black"/>
<path d="M15.4701 24.0876C18.712 24.0876 21.8188 22.4297 23.5977 19.6771L22.1902 18.7676C20.5568 21.2953 17.568 22.706 14.577 22.3607C12.2455 22.0918 10.0894 20.7486 8.80923 18.7676L7.40186 19.6771C8.95083 22.0743 11.5614 23.6997 14.3849 24.0253C14.7474 24.0672 15.1093 24.0876 15.4701 24.0876Z" fill="black"/>
</svg>
