<svg width="18" height="18" viewBox="0 0 18 18" fill="none" xmlns="http://www.w3.org/2000/svg">
<path fill-rule="evenodd" clip-rule="evenodd" d="M5.4 0H12.6C15.5781 0 18 2.4219 18 5.4V12.6C18 15.5781 15.5781 18 12.6 18H0.9C0.661305 18 0.432387 17.9052 0.263604 17.7364C0.0948211 17.5676 0 17.3387 0 17.1V5.4C0 2.4219 2.4219 0 5.4 0ZM12.6 16.2C14.5854 16.2 16.2 14.5854 16.2 12.6V5.4C16.2 3.4146 14.5854 1.8 12.6 1.8H5.4C3.4146 1.8 1.8 3.4146 1.8 5.4V16.2H12.6ZM13.5 6.3H4.5V8.1H13.5V6.3ZM10.8 9.9H4.5V11.7H10.8V9.9Z" fill="#606E7D"/>
</svg>
