<svg width="113" height="89" viewBox="0 0 113 89" fill="none" xmlns="http://www.w3.org/2000/svg">
<rect x="1.5" y="1.5" width="110" height="86" rx="8.5" fill="white" stroke="white" stroke-width="3"/>
<path d="M29.458 32.2065C29.458 29.7907 31.4164 27.8323 33.8322 27.8323H80.4903C82.9061 27.8323 84.8645 29.7907 84.8645 32.2065V62.8258C84.8645 65.2416 82.9061 67.2 80.4903 67.2H35.2903C32.0692 67.2 29.458 64.5888 29.458 61.3678V32.2065Z" fill="#021024" fill-opacity="0.1"/>
<path fill-rule="evenodd" clip-rule="evenodd" d="M35.2903 23.458C32.0692 23.458 29.458 26.0692 29.458 29.2903V32.2064V33.6645V58.4516C29.458 61.6726 32.0692 64.2838 35.2903 64.2838H79.0322C80.6427 64.2838 81.9483 62.9782 81.9483 61.3677V32.2064C81.9483 30.5959 80.6427 29.2903 79.0322 29.2903V26.3741C79.0322 24.7636 77.7266 23.458 76.1161 23.458H35.2903Z" fill="#955821"/>
<path fill-rule="evenodd" clip-rule="evenodd" d="M28 29.2903C28 25.264 31.264 22 35.2903 22H76.1161C78.5319 22 80.4903 23.9584 80.4903 26.3742V28.0812C82.1892 28.6816 83.4065 30.3019 83.4065 32.2065V61.3677C83.4065 63.7835 81.4481 65.7419 79.0323 65.7419H35.2903C31.264 65.7419 28 62.4779 28 58.4516V29.2903ZM79.0323 29.2903C80.6428 29.2903 81.9484 30.5959 81.9484 32.2065V61.3677C81.9484 62.9783 80.6428 64.2839 79.0323 64.2839H35.2903C32.0693 64.2839 29.4581 61.6727 29.4581 58.4516V29.2903C29.4581 26.0693 32.0693 23.4581 35.2903 23.4581H76.1161C77.7267 23.4581 79.0323 24.7637 79.0323 26.3742V29.2903Z" fill="#5F320B"/>
<path fill-rule="evenodd" clip-rule="evenodd" d="M30.916 30.0194C31.3187 30.0194 31.6451 30.3458 31.6451 30.7484V59.9097C31.6451 60.3124 31.3187 60.6388 30.916 60.6388C30.5134 60.6388 30.187 60.3124 30.187 59.9097V30.7484C30.187 30.3458 30.5134 30.0194 30.916 30.0194Z" fill="#C87E3B"/>
<path d="M76.116 23.458H34.5611C33.3532 23.458 32.374 24.4372 32.374 25.6451C32.374 26.853 33.3532 27.8322 34.5611 27.8322H79.0321V26.3741C79.0321 24.7636 77.7265 23.458 76.116 23.458Z" fill="#824B19"/>
<path d="M79.0321 29.2903V26.3741H33.8321C33.0268 26.3741 32.374 27.0269 32.374 27.8322C32.374 28.6375 33.0268 29.2903 33.8321 29.2903H79.0321Z" fill="#713E12"/>
<path fill-rule="evenodd" clip-rule="evenodd" d="M34.5612 23.4581C33.3533 23.4581 32.3741 24.4373 32.3741 25.6452C32.3741 26.8531 33.3533 27.8323 34.5612 27.8323H79.7612C80.1638 27.8323 80.4902 28.1587 80.4902 28.5613C80.4902 28.9639 80.1638 29.2903 79.7612 29.2903H34.5612C32.548 29.2903 30.916 27.6583 30.916 25.6452C30.916 23.632 32.548 22 34.5612 22H46.9547C47.3574 22 47.6838 22.3264 47.6838 22.729C47.6838 23.1317 47.3574 23.4581 46.9547 23.4581H34.5612Z" fill="#5F320B"/>
<path d="M68.8262 56.9936C68.8262 57.3962 68.4998 57.7226 68.0972 57.7226C67.6946 57.7226 67.3682 57.3962 67.3682 56.9936C67.3682 56.5909 67.6946 56.2645 68.0972 56.2645C68.4998 56.2645 68.8262 56.5909 68.8262 56.9936Z" fill="#7E4919"/>
<path d="M71.7422 56.2646C71.7422 56.6672 71.4158 56.9936 71.0132 56.9936C70.6106 56.9936 70.2842 56.6672 70.2842 56.2646C70.2842 55.8619 70.6106 55.5355 71.0132 55.5355C71.4158 55.5355 71.7422 55.8619 71.7422 56.2646Z" fill="#7E4919"/>
<path d="M72.4713 58.8162C72.4713 59.4202 71.9817 59.9098 71.3777 59.9098C70.7738 59.9098 70.2842 59.4202 70.2842 58.8162C70.2842 58.2123 70.7738 57.7227 71.3777 57.7227C71.9817 57.7227 72.4713 58.2123 72.4713 58.8162Z" fill="#7E4919"/>
<path d="M79.7613 60.2742C79.7613 60.8782 79.2717 61.3678 78.6678 61.3678C78.0638 61.3678 77.5742 60.8782 77.5742 60.2742C77.5742 59.6703 78.0638 59.1807 78.6678 59.1807C79.2717 59.1807 79.7613 59.6703 79.7613 60.2742Z" fill="#7E4919"/>
<path d="M69.5553 60.2742C69.5553 60.8782 69.0657 61.3678 68.4617 61.3678C67.8578 61.3678 67.3682 60.8782 67.3682 60.2742C67.3682 59.6703 67.8578 59.1807 68.4617 59.1807C69.0657 59.1807 69.5553 59.6703 69.5553 60.2742Z" fill="#7E4919"/>
<path d="M65.1807 59.1807C65.1807 59.5833 64.8543 59.9097 64.4517 59.9097C64.0491 59.9097 63.7227 59.5833 63.7227 59.1807C63.7227 58.7781 64.0491 58.4517 64.4517 58.4517C64.8543 58.4517 65.1807 58.7781 65.1807 59.1807Z" fill="#7E4919"/>
<path d="M62.2647 61.3678C62.2647 61.7705 61.9383 62.0969 61.5357 62.0969C61.133 62.0969 60.8066 61.7705 60.8066 61.3678C60.8066 60.9652 61.133 60.6388 61.5357 60.6388C61.9383 60.6388 62.2647 60.9652 62.2647 61.3678Z" fill="#7E4919"/>
<path d="M79.7613 52.6194C79.7613 53.022 79.4349 53.3484 79.0323 53.3484C78.6296 53.3484 78.3032 53.022 78.3032 52.6194C78.3032 52.2168 78.6296 51.8904 79.0323 51.8904C79.4349 51.8904 79.7613 52.2168 79.7613 52.6194Z" fill="#7E4919"/>
<path d="M73.9293 53.3484C73.9293 53.751 73.6029 54.0774 73.2002 54.0774C72.7976 54.0774 72.4712 53.751 72.4712 53.3484C72.4712 52.9458 72.7976 52.6194 73.2002 52.6194C73.6029 52.6194 73.9293 52.9458 73.9293 53.3484Z" fill="#7E4919"/>
<path d="M71.0132 62.0968C71.0132 62.4995 70.6868 62.8259 70.2842 62.8259C69.8816 62.8259 69.5552 62.4995 69.5552 62.0968C69.5552 61.6942 69.8816 61.3678 70.2842 61.3678C70.6868 61.3678 71.0132 61.6942 71.0132 62.0968Z" fill="#7E4919"/>
<path d="M65.9097 62.0968C65.9097 62.4995 65.5833 62.8259 65.1807 62.8259C64.7781 62.8259 64.4517 62.4995 64.4517 62.0968C64.4517 61.6942 64.7781 61.3678 65.1807 61.3678C65.5833 61.3678 65.9097 61.6942 65.9097 62.0968Z" fill="#7E4919"/>
<path d="M74.6583 56.9936C74.6583 57.3962 74.3319 57.7226 73.9292 57.7226C73.5266 57.7226 73.2002 57.3962 73.2002 56.9936C73.2002 56.5909 73.5266 56.2645 73.9292 56.2645C74.3319 56.2645 74.6583 56.5909 74.6583 56.9936Z" fill="#7E4919"/>
<path d="M76.8453 58.4517C76.8453 58.8543 76.5189 59.1807 76.1162 59.1807C75.7136 59.1807 75.3872 58.8543 75.3872 58.4517C75.3872 58.0491 75.7136 57.7227 76.1162 57.7227C76.5189 57.7227 76.8453 58.0491 76.8453 58.4517Z" fill="#7E4919"/>
<path d="M80.4903 56.2646C80.4903 56.6672 80.1639 56.9936 79.7613 56.9936C79.3586 56.9936 79.0322 56.6672 79.0322 56.2646C79.0322 55.8619 79.3586 55.5355 79.7613 55.5355C80.1639 55.5355 80.4903 55.8619 80.4903 56.2646Z" fill="#7E4919"/>
<path d="M77.5743 55.1711C77.5743 55.775 77.0847 56.2646 76.4808 56.2646C75.8768 56.2646 75.3872 55.775 75.3872 55.1711C75.3872 54.5671 75.8768 54.0775 76.4808 54.0775C77.0847 54.0775 77.5743 54.5671 77.5743 55.1711Z" fill="#7E4919"/>
<path d="M73.9293 60.6388C73.9293 61.0415 73.6029 61.3679 73.2002 61.3679C72.7976 61.3679 72.4712 61.0415 72.4712 60.6388C72.4712 60.2362 72.7976 59.9098 73.2002 59.9098C73.6029 59.9098 73.9293 60.2362 73.9293 60.6388Z" fill="#7E4919"/>
<path d="M76.1163 62.0968C76.1163 62.4995 75.7899 62.8259 75.3872 62.8259C74.9846 62.8259 74.6582 62.4995 74.6582 62.0968C74.6582 61.6942 74.9846 61.3678 75.3872 61.3678C75.7899 61.3678 76.1163 61.6942 76.1163 62.0968Z" fill="#7E4919"/>
<path d="M67.3677 47.516C67.3677 45.5028 68.9997 43.8708 71.0128 43.8708H83.4064C84.2117 43.8708 84.8644 44.5236 84.8644 45.3289V49.7031C84.8644 50.5084 84.2117 51.1612 83.4064 51.1612H71.0128C68.9997 51.1612 67.3677 49.5292 67.3677 47.516Z" fill="#B16A29"/>
<path fill-rule="evenodd" clip-rule="evenodd" d="M71.0129 42.4128H83.4064C85.017 42.4128 86.3226 43.7184 86.3226 45.329V49.7032C86.3226 51.3137 85.017 52.6193 83.4064 52.6193H71.0129C68.1945 52.6193 65.9097 50.3345 65.9097 47.5161C65.9097 44.6976 68.1945 42.4128 71.0129 42.4128ZM71.0129 43.8709C68.9997 43.8709 67.3677 45.5029 67.3677 47.5161C67.3677 49.5292 68.9997 51.1612 71.0129 51.1612H83.4064C84.2117 51.1612 84.8645 50.5084 84.8645 49.7032V45.329C84.8645 44.5237 84.2117 43.8709 83.4064 43.8709H71.0129Z" fill="#5F320B"/>
<path fill-rule="evenodd" clip-rule="evenodd" d="M67.3677 47.516C67.3677 45.5028 68.9997 43.8708 71.0128 43.8708H82.6774C83.08 43.8708 83.4064 44.1972 83.4064 44.5999C83.4064 45.0025 83.08 45.3289 82.6774 45.3289H71.0128C69.8049 45.3289 68.8257 46.3081 68.8257 47.516H67.3677Z" fill="#DD893D"/>
<path fill-rule="evenodd" clip-rule="evenodd" d="M67.3677 47.516C67.3677 45.5028 68.9997 43.8708 71.0128 43.8708H71.7419C72.1445 43.8708 72.4709 44.1972 72.4709 44.5999C72.4709 45.0025 72.1445 45.3289 71.7419 45.3289H71.0128C69.8049 45.3289 68.8257 46.3081 68.8257 47.516V48.245C68.8257 48.6477 68.4993 48.9741 68.0967 48.9741C67.6941 48.9741 67.3677 48.6477 67.3677 48.245V47.516Z" fill="#FEBB7D"/>
<path d="M73.1999 47.5161C73.1999 48.724 72.2207 49.7032 71.0128 49.7032C69.8049 49.7032 68.8257 48.724 68.8257 47.5161C68.8257 46.3082 69.8049 45.329 71.0128 45.329C72.2207 45.329 73.1999 46.3082 73.1999 47.5161Z" fill="#5F320B"/>
<path fill-rule="evenodd" clip-rule="evenodd" d="M33.832 24.187C33.832 23.7844 34.1584 23.458 34.5611 23.458H74.6578C75.0605 23.458 75.3869 23.7844 75.3869 24.187C75.3869 24.5897 75.0605 24.9161 74.6578 24.9161H34.5611C34.1584 24.9161 33.832 24.5897 33.832 24.187Z" fill="#955821"/>
<path fill-rule="evenodd" clip-rule="evenodd" d="M34.5615 30.0193C34.5615 29.6167 34.8879 29.2903 35.2906 29.2903H77.5744C77.9771 29.2903 78.3035 29.6167 78.3035 30.0193C78.3035 30.4219 77.9771 30.7483 77.5744 30.7483H35.2906C34.8879 30.7483 34.5615 30.4219 34.5615 30.0193Z" fill="#C87E3B"/>
<path fill-rule="evenodd" clip-rule="evenodd" d="M30.9053 27.2072C31.2506 27 31.6984 27.112 31.9056 27.4572C32.3851 28.2565 32.9179 28.6971 33.4569 28.9487C34.007 29.2054 34.6177 29.2904 35.2901 29.2904H45.4965C45.8992 29.2904 46.2256 29.6168 46.2256 30.0194C46.2256 30.422 45.8992 30.7484 45.4965 30.7484H35.2901C34.5044 30.7484 33.6571 30.6511 32.8403 30.2699C32.0123 29.8836 31.2692 29.2307 30.6553 28.2074C30.4481 27.8621 30.5601 27.4143 30.9053 27.2072Z" fill="#EC974A"/>
<circle cx="52.787" cy="47.5161" r="10.4774" stroke="#5F320B" stroke-width="2"/>
<path d="M44.0386 47.5163C44.0386 42.6847 47.9554 38.7679 52.787 38.7679" stroke="#C87E3B" stroke-width="2" stroke-linecap="round" stroke-linejoin="round"/>
<path d="M46.2256 48.9742H52.0578" stroke="#5F320B" stroke-width="2" stroke-linecap="round" stroke-linejoin="round"/>
<path d="M46.2256 46.0582H52.0578" stroke="#5F320B" stroke-width="2" stroke-linecap="round" stroke-linejoin="round"/>
</svg>
