<svg width="26" height="26" viewBox="0 0 26 26" fill="none" xmlns="http://www.w3.org/2000/svg">
<g filter="url(#filter0_d_722_16336)">
<path fill-rule="evenodd" clip-rule="evenodd" d="M9 0C7.34315 0 6 1.34315 6 3C6 3.39025 6.07451 3.76309 6.21009 4.10508C4.93647 4.45179 4 5.61653 4 7C4 8.06226 4.5521 8.99557 5.38499 9.52864C5.13986 9.96336 5 10.4653 5 11C5 11.5347 5.13986 12.0366 5.38499 12.4714C4.55209 13.0044 4 13.9377 4 15C4 16.6569 5.34315 18 7 18H11C12.0666 18 13.0032 17.4434 13.5351 16.6048C14.4338 17.4688 15.6549 18 17 18C19.7614 18 22 15.7614 22 13C22 10.2386 19.7614 8 17 8C15.9366 8 14.9507 8.33197 14.1404 8.89793C13.9822 8.73688 13.806 8.5936 13.615 8.47137C13.8601 8.03664 14 7.53465 14 7C14 6.60975 13.9255 6.23691 13.7899 5.89492C15.0635 5.54821 16 4.38347 16 3C16 1.34315 14.6569 0 13 0H9ZM12.7595 10.3495C12.5761 10.1356 12.3039 10 12 10H8C7.44772 10 7 10.4477 7 11C7 11.5523 7.44772 12 8 12H12C12.0341 12 12.0678 11.9983 12.101 11.995C12.2222 11.4014 12.4484 10.8462 12.7595 10.3495ZM12 7C12 6.44772 11.5523 6 11 6H7C6.44772 6 6 6.44772 6 7C6 7.55228 6.44772 8 7 8H11C11.5523 8 12 7.55228 12 7ZM9 4H13C13.5523 4 14 3.55228 14 3C14 2.44772 13.5523 2 13 2H9C8.44772 2 8 2.44772 8 3C8 3.55228 8.44772 4 9 4ZM12 15C12 14.4477 11.5523 14 11 14H7C6.44772 14 6 14.4477 6 15C6 15.5523 6.44772 16 7 16H11C11.5523 16 12 15.5523 12 15ZM14 13C14 11.3431 15.3431 10 17 10C18.6569 10 20 11.3431 20 13C20 14.6569 18.6569 16 17 16C15.3431 16 14 14.6569 14 13Z" fill="#606E7D"/>
</g>
<defs>
<filter id="filter0_d_722_16336" x="0" y="0" width="26" height="26" filterUnits="userSpaceOnUse" color-interpolation-filters="sRGB">
<feFlood flood-opacity="0" result="BackgroundImageFix"/>
<feColorMatrix in="SourceAlpha" type="matrix" values="0 0 0 0 0 0 0 0 0 0 0 0 0 0 0 0 0 0 127 0" result="hardAlpha"/>
<feOffset dy="4"/>
<feGaussianBlur stdDeviation="2"/>
<feComposite in2="hardAlpha" operator="out"/>
<feColorMatrix type="matrix" values="0 0 0 0 0 0 0 0 0 0 0 0 0 0 0 0 0 0 0.25 0"/>
<feBlend mode="normal" in2="BackgroundImageFix" result="effect1_dropShadow_722_16336"/>
<feBlend mode="normal" in="SourceGraphic" in2="effect1_dropShadow_722_16336" result="shape"/>
</filter>
</defs>
</svg>
