<svg width="200" height="50" viewBox="0 0 200 50" fill="none" xmlns="http://www.w3.org/2000/svg">
<line x1="160" y1="23.5" x2="-4.37114e-08" y2="23.5" stroke="#272265"/>
<rect x="150.5" y="0.5" width="49" height="49" rx="24.5" fill="#272265" stroke="#272265"/>
<path fill-rule="evenodd" clip-rule="evenodd" d="M170.15 20.25C170.15 17.3505 172.5 15 175.4 15C178.299 15 180.65 17.3505 180.65 20.25C180.65 23.1495 178.299 25.5 175.4 25.5C172.5 25.5 170.15 23.1495 170.15 20.25ZM167 32.75C167 29.8505 169.351 27.5 172.25 27.5H178.55C181.449 27.5 183.8 29.8505 183.8 32.75C183.8 34.4897 182.39 35.9 180.65 35.9H170.15C168.41 35.9 167 34.4897 167 32.75Z" fill="white"/>
</svg>
