<svg width="12" height="12" viewBox="0 0 12 12" fill="none" xmlns="http://www.w3.org/2000/svg">
<path d="M7.30105 7.04008L8.14104 5.58517C8.19504 5.49499 8.17104 5.38076 8.09304 5.31463L7.20505 4.61723C7.22305 4.48497 7.23505 4.34669 7.23505 4.20842C7.23505 4.07014 7.22305 3.93186 7.20505 3.79359L8.09304 3.09619C8.17104 3.03006 8.19504 2.91583 8.14104 2.82565L7.30105 1.37074C7.24705 1.28056 7.13905 1.24449 7.04305 1.28056L5.99906 1.7014C5.78306 1.53307 5.54906 1.39479 5.29107 1.28657L5.13507 0.174349C5.125 0.125725 5.09873 0.0819775 5.06057 0.0502939C5.0224 0.0186104 4.97462 0.000874547 4.92507 0H3.24509C3.14309 0 3.05309 0.0781563 3.03509 0.180361L2.87909 1.29259C2.6271 1.4008 2.3871 1.53908 2.1711 1.70741L1.12711 1.28657C1.03111 1.2505 0.923113 1.28657 0.869114 1.37675L0.0291228 2.83166C-0.0248766 2.92184 -0.000876805 3.03607 0.0771224 3.1022L0.965113 3.7996C0.947113 3.93186 0.935113 4.07014 0.935113 4.20842C0.935113 4.34669 0.947113 4.48497 0.965113 4.62325L0.0771224 5.32064C-0.000876805 5.38677 -0.0248766 5.501 0.0291228 5.59118L0.869114 7.04609C0.923113 7.13627 1.03111 7.17234 1.12711 7.13627L2.1711 6.71543C2.3871 6.88377 2.6211 7.02204 2.87909 7.13026L3.03509 8.24249C3.05309 8.33868 3.14309 8.41683 3.24509 8.41683H4.92507C5.02707 8.41683 5.11707 8.33868 5.13507 8.23647L5.29107 7.12425C5.54306 7.01603 5.78306 6.87776 5.99906 6.70942L7.04305 7.13026C7.13905 7.16633 7.24705 7.13026 7.30105 7.04008ZM4.08508 5.41082C3.42509 5.41082 2.88509 4.86974 2.88509 4.20842C2.88509 3.54709 3.42509 3.00601 4.08508 3.00601C4.74507 3.00601 5.28507 3.54709 5.28507 4.20842C5.28507 4.86974 4.74507 5.41082 4.08508 5.41082ZM11.951 10.022L11.375 9.57716C11.387 9.49299 11.399 9.40281 11.399 9.31263C11.399 9.22245 11.393 9.13226 11.375 9.0481L11.945 8.60321C11.993 8.56112 12.011 8.48898 11.975 8.42886L11.435 7.49699C11.405 7.43687 11.333 7.41884 11.267 7.43687L10.601 7.70742C10.463 7.5992 10.313 7.50902 10.145 7.44289L10.043 6.73347C10.0406 6.70133 10.0264 6.67123 10.0031 6.64901C9.97986 6.62679 9.94916 6.61403 9.91702 6.61323H8.84303C8.77703 6.61323 8.71703 6.66132 8.71103 6.72746L8.60903 7.43687C8.44703 7.50902 8.29103 7.59319 8.15304 7.7014L7.48704 7.43086C7.45647 7.41934 7.42281 7.41906 7.39205 7.43006C7.36128 7.44107 7.33542 7.46266 7.31905 7.49098L6.77905 8.42285C6.74905 8.48297 6.75505 8.55511 6.80905 8.59719L7.37904 9.04208C7.3543 9.21757 7.3543 9.39566 7.37904 9.57114L6.80905 10.016C6.76105 10.0581 6.74305 10.1303 6.77905 10.1904L7.31905 11.1222C7.34904 11.1824 7.42104 11.2004 7.48704 11.1824L8.15304 10.9118C8.29103 11.02 8.44103 11.1102 8.60903 11.1764L8.71103 11.8858C8.72303 11.9519 8.77703 12 8.84303 12H9.91702C9.98302 12 10.043 11.9519 10.049 11.8858L10.151 11.1764C10.313 11.1042 10.469 11.02 10.601 10.9118L11.273 11.1824C11.333 11.2064 11.405 11.1824 11.441 11.1222L11.981 10.1904C12.017 10.1363 11.999 10.0641 11.951 10.022ZM9.37702 10.1182C9.16212 10.1182 8.95605 10.0325 8.80415 9.88022C8.65225 9.7279 8.56695 9.52135 8.56703 9.30601C8.56711 9.09068 8.65256 8.88419 8.80457 8.73198C8.95659 8.57977 9.16272 8.49431 9.37762 8.49439C9.59253 8.49447 9.7986 8.58009 9.9505 8.73241C10.1024 8.88473 10.1877 9.09128 10.1876 9.30661C10.1875 9.52195 10.1021 9.72843 9.95007 9.88064C9.79806 10.0329 9.59193 10.1183 9.37702 10.1182Z" fill="#606E7D"/>
</svg>
